<?xml version="1.0" standalone="no"?>
<!DOCTYPE svg PUBLIC "-//W3C//DTD SVG 1.1//EN" "http://www.w3.org/Graphics/SVG/1.1/DTD/svg11.dtd" >
<svg xmlns="http://www.w3.org/2000/svg">
<metadata></metadata>
<defs>
<font id="zenithcpregular" horiz-adv-x="380" >
<font-face units-per-em="2048" ascent="1638" descent="-410" />
<missing-glyph horiz-adv-x="528" />
<glyph horiz-adv-x="0" />
<glyph horiz-adv-x="682" />
<glyph unicode=" "  horiz-adv-x="528" />
<glyph unicode="&#x09;" horiz-adv-x="528" />
<glyph unicode="&#xa0;" horiz-adv-x="528" />
<glyph unicode="!" horiz-adv-x="466" d="M78 16q0 24 19.5 48t41.5 24q13 0 21 -9.5t8 -23.5q0 -20 -20.5 -45.5t-41.5 -25.5q-28 0 -28 32zM160 131l520 1051q14 24 65 24q27 0 27 -18q0 -7 -43 -84l-553 -973h-16z" />
<glyph unicode="&#x22;" horiz-adv-x="387" d="M461 1198q0 30 8 42.5t29 12.5q19 0 25.5 -13t6.5 -46q0 -14 -4 -104l-16 -230h-21l-20 230q-8 94 -8 108zM569 1196q0 31 8.5 44t30.5 13q18 0 24.5 -12.5t6.5 -44.5q0 -12 -4 -106l-17 -230h-20l-20 230z" />
<glyph unicode="#" horiz-adv-x="960" d="M53 283l17 49h209l75 217h-211l19 49h209l94 276h63l-94 -276h211l94 276h64l-96 -276h204l-14 -49h-207l-74 -217h205l-16 -49h-205l-98 -283h-62l97 283h-211l-95 -283h-63l94 283h-209zM342 332h211l76 217h-211z" />
<glyph unicode="$" horiz-adv-x="364" d="M100 250l119 213q-51 21 -51 76q0 38 23.5 70t56.5 32q14 0 23.5 -10t9.5 -25q0 -13 -10.5 -26t-26.5 -13q-20 0 -39 19q-17 -28 -17 -58q0 -20 19.5 -36.5t42.5 -16.5q55 0 73.5 45t18.5 129q0 15 -1 44t-1 44q0 108 44 178t120 70h8l98 172q4 6 10 5t8 -6t-1 -11 l-95 -170q31 -19 31 -62q0 -30 -20.5 -57t-42.5 -27q-14 0 -23.5 9t-9.5 24t14.5 29t32.5 14q13 0 21 -4q8 8 8 21q0 15 -12 30t-25 15q-90 0 -90 -170q0 -15 2 -47.5t2 -49.5q0 -96 -52 -170.5t-116 -74.5h-12l-123 -217q-5 -10 -14 -2q-7 6 -3 14z" />
<glyph unicode="%" horiz-adv-x="778" d="M29 94l778 950l16 -14l-778 -948zM250 684q0 73 35.5 155.5t84 144t97.5 102t76 40.5q20 0 30.5 -18.5t10.5 -42.5q0 -64 -34.5 -144t-81 -144t-96 -108t-79.5 -44q-20 0 -31.5 17.5t-11.5 41.5zM276 45q0 73 35.5 155.5t84 144t97.5 102t76 40.5q20 0 30.5 -18.5 t10.5 -42.5q0 -64 -34.5 -144t-81 -144t-96 -108t-79.5 -44q-20 0 -31.5 17.5t-11.5 41.5zM279 662q0 -19 14 -19q19 0 82.5 93.5t120.5 205t57 154.5q0 4 -3.5 8t-8.5 4q-17 0 -81.5 -91.5t-122.5 -201.5t-58 -153zM305 23q0 -19 14 -19q19 0 83 93.5t121 205t57 154.5 q0 4 -4 8t-9 4q-17 0 -81.5 -91.5t-122.5 -201.5t-58 -153z" />
<glyph unicode="&#x26;" horiz-adv-x="677" d="M12 168q0 58 22.5 110.5t65.5 97.5t92 81t113 73q53 194 131.5 315.5t163.5 121.5q30 0 53 -25.5t23 -60.5q0 -50 -23 -97t-67 -88.5t-91.5 -74.5t-111.5 -70q-29 -150 -47 -332q52 84 94 132t78 48q21 0 34 -14.5t13 -30.5q0 -24 -17 -54t-44 -30q-17 0 -28 11t-11 28 q0 11 4.5 24t8.5 20l5 7q-62 -64 -141 -190q-8 -114 -8 -117q0 -30 24 -30q13 0 63.5 76.5t86.5 146.5h22q-125 -260 -203 -260q-27 0 -47 16.5t-26 42.5q-45 -45 -103 -45t-93.5 51t-35.5 117zM104 137q0 -37 21 -66.5t55 -29.5q30 0 62 35q3 214 55 424 q-84 -61 -138.5 -155t-54.5 -208zM389 578q108 68 184 161t76 164q0 19 -12 31t-35 12q-36 0 -70.5 -33t-61 -89t-46.5 -117t-35 -129z" />
<glyph unicode="'" horiz-adv-x="274" d="M272 780q-4 8 2 13q37 28 76 77t51 95q-6 -11 -17.5 -19t-21.5 -8q-28 0 -28 33q0 24 19 47.5t42 23.5q29 0 29 -38q0 -55 -40.5 -117.5t-98.5 -108.5q-9 -6 -13 2z" />
<glyph unicode="(" horiz-adv-x="274" d="M-125 152q0 107 45 219t120 209t164.5 185.5t188 161t179.5 124.5t149 86q6 2 11 -2.5t4.5 -11.5t-7.5 -13q-56 -34 -120.5 -79t-143 -109t-151.5 -134t-143 -155t-122 -169.5t-83.5 -179.5t-31.5 -184q0 -94 29.5 -145t89.5 -84q6 -3 6 -14q0 -14 -10 -9 q-174 67 -174 304z" />
<glyph unicode=")" horiz-adv-x="770" d="M-132.5 -138q0.5 7 7.5 13q56 34 120.5 79t143 109t151.5 134t143 155t122 169.5t83.5 179.5t31.5 184q0 94 -29.5 145t-89.5 84q-6 3 -6 14q0 14 10 9q174 -67 174 -303q0 -128 -65 -262.5t-160.5 -242.5t-216 -208.5t-220.5 -165.5t-184 -107q-6 -2 -11 2.5t-4.5 11.5z " />
<glyph unicode="*" horiz-adv-x="331" d="M201 899l53 23l-43 36l6 13l55 -19l-8 58l12 4l31 -49l31 49l12 -4l-8 -58l55 19l6 -13l-43 -36l54 -23l-2 -12l-60 -2l29 -51l-10 -9l-45 37l-13 -57h-12l-12 57l-45 -37l-11 9l29 51l-59 2z" />
<glyph unicode="+" horiz-adv-x="755" d="M68 416l10 22h323l152 391h22l-151 -391h332l-11 -22h-329l-154 -400h-22l153 400h-325z" />
<glyph unicode="," horiz-adv-x="274" d="M15 -170q0 5 3 8q37 28 76 77t51 95q-15 -26 -39 -26q-28 0 -28 32q0 24 19.5 48t41.5 24q29 0 29 -39q0 -55 -40.5 -117t-98.5 -108q-6 -4 -10 -1.5t-4 7.5z" />
<glyph unicode="-" horiz-adv-x="579" d="M96 231h396l22 -41h-397z" />
<glyph unicode="." horiz-adv-x="253" d="M61 16q0 24 19.5 48t42.5 24q13 0 21 -9.5t8 -23.5q0 -20 -20.5 -45.5t-41.5 -25.5q-29 0 -29 32z" />
<glyph unicode="/" horiz-adv-x="421" d="M-145 -117l890 1254l17 -13l-891 -1253z" />
<glyph unicode="0" horiz-adv-x="1052" d="M59 328q0 94 55 226.5t143 261.5t213 240t251 156q3 0 3 -4t-3 -6q-106 -49 -193 -139q-179 -182 -291 -417.5t-112 -432.5q0 -74 51.5 -136.5t124.5 -62.5q93 0 210.5 112t212.5 266.5t160.5 322t65.5 274.5q0 80 -43.5 137.5t-109.5 57.5q-63 0 -119 -39 q-37 -27 -62.5 -65t-33.5 -72q-2 -3 -7 -3t-6 3q-2 4 -2 10q0 20 30 70.5t77 82.5q54 35 114 35q66 0 111.5 -35.5t64.5 -86t19 -109.5q0 -94 -32 -207t-84.5 -221t-123 -210.5t-144.5 -179.5t-151.5 -124t-142.5 -47q-115 0 -180.5 98.5t-65.5 243.5z" />
<glyph unicode="1" horiz-adv-x="690" d="M86 0l625 1116q-23 -24 -100 -104.5t-112.5 -116.5t-98.5 -98t-117.5 -109t-110.5 -90q-10 -7 -20.5 -3t-10.5 15q0 6 9 15q359 292 632 606q11 0 11 -10q0 -7 -2 -11l-617 -1210q-30 -6 -53 -6q-20 0 -35 6z" />
<glyph unicode="2" horiz-adv-x="1202" d="M18 -6q42 100 183 210t307 169q6 2 67 24t76.5 28t67.5 26t76 32.5t63.5 33t68 40.5t54.5 43q129 112 129 270q0 99 -78 158q-65 49 -155 49q-129 0 -248 -69q-76 -44 -122 -107t-46 -131q0 -53 38 -84t93 -31q57 0 101 23t100 70l8 -7q-30 -44 -96 -84.5t-127 -40.5 q-62 0 -106 41.5t-44 102.5t38.5 124t99.5 112t142 80.5t162 31.5q114 0 206.5 -76.5t92.5 -177.5q0 -53 -18 -101.5t-46 -87.5t-73 -76t-89 -65t-104.5 -57t-108.5 -48.5t-112 -43.5q-188 -71 -301 -132.5t-198 -150.5q38 25 90.5 46.5t95.5 21.5q71 0 205 -55.5t201 -55.5 q56 0 88 25l10 -4q-43 -37 -80 -52.5t-90 -15.5q-75 0 -188.5 38t-174.5 38q-168 0 -241 -84h-17z" />
<glyph unicode="3" horiz-adv-x="1071" d="M45 217q0 80 62.5 146.5t115.5 66.5q37 0 37 -10q0 -3 -8.5 -6.5t-22 -8t-20.5 -10.5q-119 -88 -119 -194q0 -78 62 -133q74 -68 182 -68q76 0 156 33.5t145 89.5t107 137t42 168q0 83 -64 138t-151 55q-46 0 -107.5 -23t-64.5 -23q-14 0 -14 9q0 10 59 36.5t105 43.5 l55.5 18.5t57.5 19.5t55 20t54.5 22t48.5 23t45 26.5t35.5 29.5t29.5 34.5t17 38.5t7 44q0 76 -57 124t-135 48q-70 0 -148.5 -24t-135 -66.5t-56.5 -89.5q0 -49 74 -49q20 0 42.5 4t38 8t17.5 4l2 2q14 0 14 -8q0 -4 -19 -16t-48.5 -22.5t-51.5 -10.5q-40 0 -72 23.5 t-32 60.5q0 56 63.5 108t151.5 80.5t166 28.5q108 0 186 -55.5t78 -151.5q0 -51 -28 -93.5t-57.5 -67.5t-99.5 -53.5t-99 -37t-111 -30.5q-11 -3 -17 -5q100 -8 170 -72t70 -157q0 -119 -74.5 -222.5t-196 -163t-255.5 -59.5q-113 0 -200 67t-87 173z" />
<glyph unicode="4" horiz-adv-x="1126" d="M57 383q0 10 31 29q306 184 551 383q231 187 448 436q18 -4 9 -21l-428 -798q23 -2 63 -2q55 0 114 18t95 36l37 19q8 0 8 -6q0 -4 -13 -15.5t-40.5 -26.5t-63.5 -29t-88.5 -23.5t-107.5 -9.5h-25l-201 -373q-27 -6 -55 -6q-31 0 -47 8l227 377q-17 2 -115 17.5 t-153 15.5q-68 0 -139.5 -21.5t-73.5 -21.5q-33 0 -33 14zM164 416q70 28 184 28q37 0 248 -24l420 696q-149 -152 -277.5 -268t-294.5 -240q-177 -131 -280 -192z" />
<glyph unicode="5" horiz-adv-x="927" d="M51 203q0 79 52.5 154t95.5 75q20 0 20 -12q0 -3 -1.5 -5.5t-3.5 -3.5l-1 -1l2 -2q-49 -28 -88 -86.5t-39 -124.5q0 -71 41 -121q52 -66 137 -66q163 0 297 201q61 91 96 189t35 169q0 85 -47.5 139t-120.5 54q-86 0 -147.5 -39t-130.5 -117q-13 -8 -21 -8q-7 0 -13.5 5 t-6.5 13l295 519q34 -26 88.5 -45t105.5 -19q109 0 199 74l6 -4q-31 -64 -93.5 -99.5t-148.5 -35.5q-75 0 -180 41l-180 -328q60 35 105 51t104 16q112 0 181 -77t69 -193q0 -92 -42.5 -189.5t-108 -172.5t-149 -123.5t-159.5 -48.5q-104 0 -176 61t-72 160z" />
<glyph unicode="6" horiz-adv-x="884" d="M59 307q0 78 29 157.5t73.5 146t112 135t131.5 120.5t146 107.5t140.5 90.5t129.5 75v2q3 2 5.5 0.5t4 -4.5t0.5 -4q-120 -80 -244 -179t-184 -159q-278 -278 -278 -547q0 -100 61 -170q51 -58 121 -58q63 0 139 60q98 77 172 215.5t74 255.5q0 78 -39.5 133t-109.5 55 q-88 0 -197 -86q-2 -1 -5 -0.5t-3 2.5q0 7 2 9q33 27 57.5 43.5t67 33.5t82.5 17q100 0 153.5 -68t53.5 -164q0 -97 -40.5 -195.5t-102.5 -172.5t-141 -121t-153 -47q-112 0 -185 94t-73 223z" />
<glyph unicode="7" horiz-adv-x="980" d="M10 -4q88 110 255 292.5t390 420t344 370.5q-116 -53 -211 -53q-66 0 -166 35t-149 35q-22 0 -53.5 -13t-54.5 -28l-15 4l78 78l10 -4l-22 -33q101 43 164 43q56 0 160 -32t173 -32q24 0 47.5 6.5t35.5 12.5t38 20l15 -6q-516 -634 -938 -1128z" />
<glyph unicode="8" horiz-adv-x="1015" d="M31 246q0 62 23.5 115.5t50.5 87.5t89 74t97 58t116 56q31 15 46 22q-67 45 -103.5 91.5t-36.5 109.5q0 85 61 159t156 115.5t195 41.5q94 0 169 -52t75 -135q0 -24 -8 -47t-18.5 -42t-33 -40t-39 -36t-51 -35.5t-53.5 -31.5t-61.5 -32t-60.5 -29.5t-64 -29.5 q45 -28 74 -50.5t60 -55t46.5 -72t15.5 -85.5q0 -87 -44.5 -168.5t-112.5 -136.5t-147.5 -88t-149.5 -33q-133 0 -212 75t-79 194zM68 223q0 -100 68 -160.5t167 -60.5q63 0 136 27t137 72.5t106.5 115t42.5 145.5q0 28 -8 54t-16.5 45t-31 42t-34 35t-44 34t-43.5 29 t-48 30q-183 -84 -251 -128q-157 -102 -178 -234q-3 -22 -3 -46zM371 897q0 -61 41 -105.5t118 -93.5q183 88 240 124q149 94 150 186q0 65 -55.5 103t-129.5 38q-150 0 -257 -79.5t-107 -172.5z" />
<glyph unicode="9" horiz-adv-x="888" d="M33 -23q0 3 5.5 9t8.5 8q117 79 218 165t216 206q328 344 328 632q0 95 -51.5 166.5t-132.5 71.5q-101 0 -199 -90t-156.5 -221t-58.5 -252q0 -78 38 -138.5t99 -60.5q24 0 50 7.5t44.5 16.5t44.5 27.5t38 28.5t37.5 33t31.5 28q4 4 8 4t5 -5t-1 -7q-118 -162 -252 -162 q-96 0 -153.5 80.5t-57.5 188.5q0 131 67 257t177.5 205.5t228.5 79.5q112 0 180 -90t68 -219q0 -145 -66 -271.5t-190 -268.5q-85 -97 -215 -204.5t-227.5 -171t-118.5 -63.5q-14 0 -14 10z" />
<glyph unicode=":" horiz-adv-x="274" d="M78 16q0 24 19.5 48t41.5 24q13 0 21 -9.5t8 -23.5q0 -20 -20.5 -45.5t-41.5 -25.5q-28 0 -28 32zM240 338q0 24 19.5 48t41.5 24q13 0 21 -9.5t8 -23.5q0 -20 -20.5 -46t-41.5 -26q-28 0 -28 33z" />
<glyph unicode=";" horiz-adv-x="274" d="M15 -170q0 5 3 8q37 28 76 77t51 95q-15 -26 -39 -26q-28 0 -28 32q0 24 19.5 48t41.5 24q29 0 29 -39q0 -55 -40.5 -117t-98.5 -108q-6 -4 -10 -1.5t-4 7.5zM240 338q0 24 19.5 48t41.5 24q13 0 21 -9.5t8 -23.5q0 -20 -20.5 -46t-41.5 -26q-28 0 -28 33z" />
<glyph unicode="?" horiz-adv-x="421" d="M78 16q0 24 19.5 48t41.5 24q13 0 21 -9.5t8 -23.5q0 -20 -20.5 -45.5t-41.5 -25.5q-28 0 -28 32zM137 135q0 13 6 19l199 331q139 29 262 90q260 131 260 326q0 123 -67 174q-65 49 -156 49q-129 0 -248 -69q-76 -44 -122 -107t-46 -131q0 -53 38 -84t93 -31 q57 0 101 23t100 70l8 -7q-30 -43 -96 -83.5t-127 -40.5q-62 0 -105.5 41t-43.5 102t38.5 124t99.5 112t142 80.5t162 31.5q129 0 216 -84.5t87 -191.5q0 -46 -20.5 -89t-50.5 -76.5t-78.5 -66.5t-90 -55.5t-100 -47.5t-93.5 -38t-84 -30q-14 -5 -20 -7l-184 -319 q-18 -29 -47 -29q-33 0 -33 14z" />
<glyph unicode="@" horiz-adv-x="1218" d="M217 307q0 151 90 292t238 228.5t307 87.5q141 0 231.5 -75t90.5 -193q0 -156 -166 -297q-66 -57 -129 -89t-107 -32q-27 0 -45 20t-18 48q0 15 5.5 34t6.5 25q-38 -46 -83 -81t-77 -35q-28 0 -46.5 26t-18.5 60q0 55 39.5 123.5t93.5 122.5t110.5 91t89.5 37 q40 0 64 -34l14 16h68l-201 -344q-22 -37 -22 -57q0 -29 20 -29q39 0 95 27t108 79q135 135 135 289q0 111 -73 182.5t-187 71.5q-106 0 -211 -51.5t-183 -134t-126.5 -191t-48.5 -217.5q0 -140 70.5 -220.5t199.5 -80.5q124 0 261.5 71t199.5 167h18 q-75 -109 -212.5 -180.5t-272.5 -71.5q-156 0 -242 84t-86 231zM545 299q0 -35 24 -35q33 0 89 60.5t94 115.5l92 138q26 43 26 63q0 37 -34 37q-38 0 -108.5 -71.5t-126.5 -163.5t-56 -144z" />
<glyph unicode="A" horiz-adv-x="1425" d="M55 424q0 65 26 126.5t64 104t79 75.5t71 49t41 16q10 0 10 -7h2q0 -2 -27 -18.5t-65 -46t-76 -68t-65 -95.5t-27 -118q0 -38 8 -69q34 106 126.5 199.5t192 143.5t173.5 50q76 0 133 -48t57 -120q0 -39 -8 -70q54 7 96 7q13 0 86 -5q244 355 439 566q54 58 96 93.5 t53 35.5q8 0 8 -8q0 -5 -50 -111.5t-127.5 -283t-129.5 -318.5q149 0 211 22l6 -6q-22 -14 -87 -25t-138 -14q-86 -247 -86 -358q0 -131 86 -131q19 0 46 14t32 14q14 0 14 -12q0 -9 -31 -23t-61 -14q-74 0 -114 59t-40 140q0 137 64 311q-35 1 -164 15q-55 -95 -122.5 -180 t-147.5 -158t-173 -115.5t-184 -42.5q-113 0 -193.5 76t-80.5 188q0 15 4 47q-27 59 -27 113zM113 248q0 -94 70 -156.5t167 -62.5q135 0 284.5 130t297.5 343q-65 6 -133 6h-35q-41 -132 -174 -235.5t-283 -104.5q-57 0 -108 26t-86 70v-16zM117 315q29 -54 79 -84t107 -30 q116 0 251.5 92t178.5 213q-47 -3 -94 -12v12q30 7 100 18q9 30 9 66q0 62 -46 105.5t-110 43.5q-80 0 -181 -55t-187 -156t-107 -213zM418 1026q0 69 46.5 123.5t112 81t132.5 26.5q99 0 209.5 -27t209 -54t168.5 -27q46 0 101 22l4 -4q-75 -43 -141 -43q-76 0 -159 17 t-143 37.5t-135 37.5t-137 17q-91 0 -167.5 -63.5t-76.5 -141.5q0 -46 27 -83t69 -58t88 -32t89 -11q80 0 159.5 33t79.5 73q0 21 -10 31t-10 14q0 9 12 9q16 0 25.5 -13t9.5 -30q0 -63 -86 -103.5t-184 -40.5q-76 0 -140.5 22t-108.5 71t-44 116zM1006 526q15 -2 71 -8 t80 -8q54 142 143.5 304t151 259t61.5 105q0 4 -4 4q-7 0 -37.5 -29.5t-81.5 -88.5t-110.5 -135.5t-133 -183.5t-140.5 -219z" />
<glyph unicode="B" horiz-adv-x="1484" d="M27 279q0 183 172 313q-11 28 -11 63q0 117 88 231t225.5 195.5t310.5 132t337 50.5q157 0 272 -68q41 35 84 64q10 0 13 -9q-27 -21 -76 -67q114 -80 114 -211q0 -70 -34 -128.5t-94.5 -100.5t-125.5 -70.5t-143 -50.5q74 -16 127 -77t53 -145q0 -87 -47 -165 t-122 -130.5t-167.5 -83t-183.5 -30.5q-62 0 -117.5 24.5t-89.5 67.5q-133 -84 -293 -84q-120 0 -206 81t-86 198zM68 274q0 -100 71 -166.5t166 -66.5q124 0 270 123q-2 10 -2 31q0 55 20 104t48.5 80t59.5 54.5t52.5 33.5t28.5 10q13 0 13 -10q0 -14 -45 -41 q-45 -29 -87 -83.5t-42 -125.5v-12q94 90 194.5 227.5t189.5 274.5t125 182q143 178 275 293q-95 53 -234 53q-156 0 -324.5 -49t-302.5 -127t-221 -184.5t-87 -212.5q0 -13 4 -41q54 33 104.5 52t67.5 19q24 0 24 -12q0 -8 -10.5 -14t-43.5 -18.5t-52 -20.5q-23 -9 -80 -43 q24 -57 74.5 -91t115.5 -34q75 0 155.5 29.5t148.5 80t111.5 127.5t43.5 162q0 55 -40.5 94t-96.5 39q-26 0 -56 -6t-36 -6q-17 0 -17 12q0 11 34 21t67 10q75 0 129.5 -49t54.5 -121q0 -93 -48 -176t-122 -137.5t-161.5 -86.5t-168.5 -32q-70 0 -130.5 39t-92.5 100 q-147 -111 -147 -285zM645 106q44 -77 164 -77q116 0 226 58t178.5 153.5t68.5 197.5q0 71 -50.5 116.5t-129.5 45.5q-38 0 -88 -16q-105 -180 -188 -293t-181 -185zM1034 621q60 13 121.5 35t127 57.5t115.5 78t82.5 101t32.5 123.5q0 95 -88 153q-137 -131 -217 -258 q-72 -116 -174 -290z" />
<glyph unicode="C" horiz-adv-x="1007" d="M82 322q0 272 268 524q-102 79 -102 198q0 65 27 123.5t67 100.5l6 -8q-76 -90 -76 -213q0 -109 99 -181q161 145 357 237.5t314 92.5q59 0 102.5 -25.5t43.5 -74.5q0 -67 -64 -130.5t-155.5 -106.5t-189.5 -69t-169 -26q-109 0 -196 43q-254 -266 -254 -528 q0 -102 57 -174t160 -72q97 0 190 46.5t157.5 117t104 155.5t39.5 162q0 68 -44.5 115t-116.5 47q-80 0 -170.5 -48.5t-157 -137.5t-66.5 -189q0 -45 32.5 -75.5t78.5 -30.5q18 0 35.5 3t34.5 10t30 13t29.5 19t25.5 20t25 23l21.5 21.5t21 22.5t17.5 19l10 -4 q-118 -180 -256 -180q-58 0 -98.5 40t-40.5 99q0 101 69 197t166 151.5t184 55.5t143 -58.5t56 -138.5q0 -74 -41.5 -162t-109.5 -165t-167 -129t-202 -52q-126 0 -210.5 95.5t-84.5 226.5zM434 829q79 -36 182 -36q108 0 238.5 46.5t223.5 120t93 140.5q0 39 -35.5 57.5 t-86.5 18.5q-99 0 -281 -98.5t-334 -248.5z" />
<glyph unicode="D" horiz-adv-x="1378" d="M35 68q0 32 28.5 55t61.5 31t63 8q90 0 256 -17q39 36 75.5 80.5t79 113.5t64 106.5t75.5 136.5t69 127q157 284 309 452q-139 86 -319 86q-83 0 -165.5 -17t-158.5 -53t-134 -86.5t-93 -121.5t-35 -154q0 -90 56.5 -156.5t142.5 -66.5t168.5 38t139 111.5t56.5 163.5 q0 62 -43 105t-104 43q-17 0 -33 -2t-32.5 -7.5t-28 -9t-28.5 -14t-24.5 -14.5t-26 -18.5t-22.5 -18t-24.5 -20.5t-22.5 -19l-10 6q29 31 50.5 51t53 43t67 34t75.5 11q68 0 117.5 -49.5t49.5 -116.5q0 -96 -56 -177.5t-140 -126t-172 -44.5q-110 0 -177 64.5t-67 169.5 q0 83 34 158t93.5 131.5t136 98.5t165 63.5t177.5 21.5q191 0 342 -97q57 63 119 109l4 -14q-51 -41 -104 -107q100 -70 156.5 -176.5t56.5 -239.5q0 -179 -95.5 -327t-253 -230t-339.5 -82q-91 0 -199 11q-144 -115 -299 -115q-135 0 -135 68zM68 70q0 -20 29 -30.5 t65 -10.5q138 0 252 90q-126 12 -211 12q-50 0 -92.5 -15.5t-42.5 -45.5zM498 139q67 -6 149 -6q129 0 241.5 38t192.5 102t137.5 147t85 174t27.5 182q0 120 -52 214.5t-144 156.5q-51 -65 -98.5 -150.5t-99 -190t-85.5 -163.5q-184 -351 -354 -504z" />
<glyph unicode="E" horiz-adv-x="997" d="M47 311q0 278 326 447q-132 47 -214.5 135t-82.5 190q0 18 6.5 38t11.5 20q4 0 4 -6q0 -2 -3 -24.5t-3 -35.5q0 -91 90.5 -174t231.5 -123q116 53 225 80q-21 32 -21 66q0 69 56.5 140t148 117t185.5 46q64 0 110.5 -44t46.5 -106t-36.5 -124t-103.5 -115.5t-175 -87 t-238 -33.5q-102 0 -200 28q-279 -158 -279 -450q0 -105 90 -184.5t207 -79.5q95 0 182 48.5t142 135t55 186.5q0 89 -59 152t-146 63q-63 0 -131.5 -31t-119 -92.5t-50.5 -134.5q0 -45 35 -75.5t82 -30.5q30 0 60.5 14.5t49 32.5t33 32.5t17.5 14.5q8 0 8 -8q0 -27 -55 -69 t-109 -42q-61 0 -105.5 37t-44.5 94q0 114 95.5 199.5t220.5 85.5q102 0 175 -71.5t73 -172.5q0 -160 -126 -279.5t-296 -119.5q-147 0 -258 87.5t-111 223.5zM455 768q79 -18 166 -18q132 0 251 42t195 120t76 173q0 46 -36.5 83.5t-86.5 37.5q-60 0 -138 -42t-137 -112 t-59 -137q0 -23 10 -43q72 17 88 17q76 0 76 -29q0 -23 -33 -36t-71 -13q-64 0 -101 29q-101 -24 -200 -72zM717 854q21 -12 63 -12q43 0 43 14q0 8 -32 8q-20 0 -74 -10z" />
<glyph unicode="F" horiz-adv-x="1265" d="M33 246q0 105 78 185.5t145 80.5q23 0 23 -12q-81 -25 -140 -82q-36 -34 -58 -89.5t-22 -103.5q0 -85 77 -132.5t177 -47.5q166 0 311 125t298 369h-162q-15 0 -15 14t15 14h180q48 79 137 238q26 47 100.5 140.5t157.5 176.5q-77 5 -292.5 36.5t-360.5 31.5 q-101 0 -193 -19t-171 -57.5t-126 -106.5t-47 -157q0 -63 36.5 -114t96 -81.5t129.5 -46.5t142 -16q67 0 130 11.5t119.5 35t91 66t34.5 98.5q0 75 -71 112t-165 37q-72 0 -133.5 -19.5t-98.5 -47.5t-63 -56t-39.5 -47.5t-15.5 -19.5l2 2q-8 0 -8 18q0 19 28.5 53t74.5 68.5 t115 60t140 25.5q106 0 186 -47.5t80 -134.5q0 -62 -37.5 -111t-99 -77t-131.5 -42t-143 -14q-111 0 -208.5 33.5t-160.5 99.5t-63 152q0 79 35.5 146t94 113t133 79t152.5 48t154 15q148 0 362 -45.5t322 -52.5q175 164 274 164q24 0 41 -16t17 -39q0 -65 -81.5 -102.5 t-180.5 -37.5q-10 0 -32 1t-32 1q-47 -44 -91 -102.5t-93 -144t-77.5 -140t-84.5 -166.5h133q15 0 15 -14t-15 -14h-149q-138 -266 -303.5 -399.5t-382.5 -133.5q-148 0 -219.5 62t-71.5 176zM1401 1147h51q54 0 102 10t84.5 38t36.5 69q0 13 -11 19.5t-26 6.5 q-46 0 -102.5 -37t-134.5 -106z" />
<glyph unicode="G" horiz-adv-x="1343" d="M31 -147q0 165 118 278t285 113q74 0 127 -53t53 -130q0 -54 -28 -101t-71.5 -78t-89 -51t-87.5 -28l-4 19q88 18 170 85t82 154q0 65 -45 109.5t-107 44.5q-155 0 -265 -104.5t-110 -257.5q0 -102 74 -166t184 -64q77 0 151.5 31.5t137.5 84t128.5 132t119 163 t116 190.5t113 201t115.5 207.5t119 198.5q-25 -31 -76.5 -95t-80.5 -99.5t-78.5 -92t-84 -89.5t-82.5 -73.5t-88.5 -62t-88 -36.5t-93.5 -15q-103 0 -167 79.5t-64 193.5q0 110 47.5 227.5t126.5 224.5q-27 52 -27 103q0 166 217 331l15 -12q-39 -34 -66 -61t-63 -70.5 t-55 -91.5t-19 -96q0 -38 16 -78q183 205 407 335t365 130q71 0 109.5 -50.5t38.5 -115.5q0 -96 -74.5 -188.5t-180.5 -155t-217.5 -101t-191.5 -38.5q-73 0 -132.5 29.5t-86.5 58.5q-172 -232 -172 -420q0 -90 52.5 -147.5t121.5 -57.5q39 0 83 15.5t84 38.5t88.5 63.5 t86.5 76.5t87.5 92t82.5 95.5t81 101.5t73 95.5t67 91.5q15 22 70 22q14 0 14 -10q0 -8 -8 -21q-49 -82 -116.5 -205.5t-122 -225.5t-126 -225t-135 -219.5t-142 -191.5t-154 -157.5t-164 -101t-177.5 -38.5q-121 0 -203.5 71t-82.5 188zM662 942q87 -80 200 -80 q60 0 142 23.5t167.5 67.5t159 99t120 125.5t46.5 139.5q0 54 -32 95.5t-87 41.5q-92 0 -179 -37t-200 -123q-168 -127 -337 -352z" />
<glyph unicode="H" horiz-adv-x="1390" d="M27 94q0 51 22.5 98t57 84.5t93 75t113 65t135 58.5t142 51.5t149.5 48.5q113 187 215.5 339t223.5 300q-118 -40 -184 -52.5t-175 -12.5q-91 0 -174.5 -19t-153 -55.5t-110.5 -97.5t-41 -139q0 -81 55 -135t137 -54q41 0 89 22.5t76 44.5l28 23l12 -12q-4 -4 -11 -11.5 t-29.5 -25.5t-45.5 -32t-55.5 -25.5t-63.5 -11.5q-94 0 -157.5 62t-63.5 155q0 148 128.5 245t330.5 97q132 0 229 13.5t218 55.5q10 0 10 -10q-65 -75 -121 -160.5t-87.5 -144t-84 -164.5t-82.5 -162l276 86q147 213 359.5 396.5t294.5 183.5q53 0 53 -68t-85.5 -164 t-193.5 -163q-181 -113 -331 -177q-195 -322 -195 -522q0 -74 32 -111.5t87 -37.5q16 0 38.5 5.5t36.5 11.5l15 5l12 -12q-59 -37 -102 -37q-87 0 -137.5 60t-50.5 161q0 194 141 428l-271 -82q-68 -164 -174.5 -305.5t-233 -229t-239.5 -87.5q-64 0 -110.5 41.5 t-46.5 103.5zM59 98q0 -50 38.5 -83t90.5 -33q41 0 85 20t82.5 49.5t83 80t77 92.5t75 106.5t67 104t61.5 102.5q-293 -103 -404 -158q-208 -101 -246 -219q-10 -30 -10 -62zM1249 745q77 32 132 62.5t159 95.5q103 64 186.5 156.5t83.5 146.5q0 23 -9 36t-23 13 q-70 0 -225.5 -147.5t-303.5 -362.5z" />
<glyph unicode="I" horiz-adv-x="1179" d="M33 297q0 71 29 135.5t77 112t109.5 83t128.5 53t131 17.5q96 0 171 -51t75 -139t-67.5 -171.5t-160 -131t-172.5 -47.5q-62 0 -107.5 42.5t-45.5 104.5q0 43 22 81.5t53.5 63t62.5 43.5t53 27l22 8q15 4 18 -10q4 -15 -10 -18q-2 0 -21 -8t-48 -25.5t-56.5 -39.5 t-47.5 -55t-20 -67q0 -51 36 -85t89 -34q54 0 119 28t121 72t93.5 104t37.5 118q0 72 -65.5 117t-151.5 45q-104 0 -206 -46t-171.5 -134t-69.5 -193q0 -117 85 -193.5t206 -76.5q87 0 176.5 41.5t166 111t139.5 146.5t114 161q56 92 100 158.5t108.5 160.5t113.5 167 q63 93 205 258q-58 -17 -111 -27q-36 -6 -138.5 -12t-183.5 -6q-100 0 -192 -37.5t-151.5 -107t-59.5 -154.5q0 -73 55.5 -122.5t132.5 -49.5q36 0 70 12.5t58 29.5t42.5 34.5t27.5 30.5l9 12q8 12 19 4q9 -6 4 -17l-4 -5q-4 -6 -10.5 -13.5t-16 -17.5t-21.5 -20.5 t-26.5 -21.5t-32 -20t-36.5 -16.5t-41.5 -12t-45.5 -4.5q-89 0 -153 57t-64 144q0 98 63.5 176t169 120t232.5 42l186 -2q124 7 162 16q17 4 40 10.5t37 10.5t17 4l9 -4q10 0 10 -11q0 -1 -27 -28q-102 -117 -170 -215q-72 -105 -172 -312t-174 -315q-269 -385 -637 -385 q-131 0 -225 85.5t-94 213.5z" />
<glyph unicode="J" horiz-adv-x="1046" d="M8 -158q0 62 31 123.5t91 119.5t130.5 110.5t168 107.5t184.5 98.5t198 94.5q318 446 549 682q-75 -19 -148 -19q-41 0 -142 4t-155 4q-105 0 -191.5 -31t-143 -99.5t-56.5 -162.5q0 -83 56 -134.5t153 -51.5q33 0 80 16t94 42.5t80 69.5t33 91q0 52 -41.5 87.5 t-101.5 35.5q-115 0 -193 -72l-10 9q87 90 203 90q67 0 115 -42t48 -108q0 -55 -34.5 -103.5t-84 -78t-100.5 -46.5t-88 -17q-109 0 -173 58.5t-64 153.5q0 80 38.5 145.5t101.5 106t140 62.5t158 22q56 0 148 -11t130 -11q54 0 99 6.5t69 13t29 6.5q8 0 8 -8 q0 -7 -15 -20.5t-53 -51.5t-89.5 -99t-138.5 -188.5t-187 -295.5l141 63q13 6 17 -2t-11 -16l-166 -76q-89 -150 -196 -291.5t-214.5 -252t-211 -177.5t-178.5 -67q-44 0 -75.5 36.5t-31.5 73.5zM37 -158q0 -27 23 -55.5t55 -28.5q40 0 86.5 24t102 76t105.5 107 t120.5 146.5t122 162.5t132.5 185q-134 -64 -236.5 -118t-202.5 -118.5t-164.5 -123.5t-104 -125.5t-39.5 -131.5z" />
<glyph unicode="K" horiz-adv-x="1449" d="M20 215q0 91 44 171.5t114 134.5t154.5 85t167.5 31q92 0 160.5 -54.5t68.5 -142.5q0 -68 -58.5 -149.5t-151.5 -140t-181 -58.5q-69 0 -109.5 39t-40.5 102q0 131 197 220q2 2 8 2q8 0 8 -9q0 -7 -8 -10q-180 -81 -180 -209q0 -49 34.5 -78.5t86.5 -29.5q61 0 128 32 t118.5 79t85.5 104t34 104q0 75 -58 122.5t-142 47.5q-105 0 -208 -49t-173 -141.5t-70 -202.5q0 -109 80.5 -183.5t194.5 -74.5q56 0 110.5 14.5t97 35t88 57.5t76.5 67.5t70.5 79t61 78.5t56.5 80l21 30q1 1 19.5 33.5t49.5 85.5t71.5 121t90 145t100.5 150.5t107 145 t105 122.5q-151 -47 -430 -63q-73 -4 -144.5 -25.5t-131.5 -57.5t-97 -91.5t-37 -120.5q0 -80 55 -130t144 -50q41 0 75.5 15.5t54 32.5t62.5 60q14 14 19 14q6 0 6 -12q0 -4 -10 -18.5t-30.5 -35t-46.5 -39.5t-63.5 -32.5t-76.5 -13.5q-95 0 -154 58t-59 147q0 93 67 172.5 t169.5 123.5t211.5 44q164 0 266 10q58 6 97.5 15.5t54.5 15.5l14 6q11 0 11 -13q0 -2 -24 -28.5t-63.5 -76.5t-70.5 -99q-16 -25 -33.5 -56t-39.5 -75.5t-37 -74.5t-44.5 -91.5t-42.5 -87.5l-67 -140q88 43 174.5 109.5t152.5 134t142.5 144.5t145.5 142.5t159.5 126 t185.5 97.5l8 -10q-114 -48 -215.5 -134t-224.5 -221q-113 -122 -250 -231q10 2 33 2t39 -16t16 -39q0 -29 -30.5 -77.5t-73.5 -103t-86.5 -111.5t-74 -115.5t-30.5 -102.5q0 -23 15.5 -38t38.5 -15q13 0 51 19t55 34q5 4 10.5 3.5t8.5 -5.5q8 -12 -3 -19q-82 -61 -133 -61 t-80.5 34t-29.5 79q0 56 32.5 122t79.5 123t93.5 107t79 88t32.5 53q0 12 -18 12q-61 0 -127 -51q-91 -66 -195 -114q-30 -59 -61 -103q-49 -67 -94.5 -121t-109 -111.5t-128 -96t-147 -63t-170.5 -24.5q-124 0 -214 81t-90 202z" />
<glyph unicode="L" horiz-adv-x="1359" d="M37 72q0 60 53.5 93.5t124.5 33.5q33 0 69.5 -5t62.5 -9.5t70.5 -17.5t62 -19l70 -24t64.5 -22q36 29 70.5 62.5t72 78t64 77t69 92t62 87.5t67.5 99t64 94q-141 -43 -313 -43q-115 0 -202 61.5t-87 163.5q0 77 46.5 145t115.5 110.5t142.5 67t132.5 24.5q64 0 149 -9 v-14q-82 2 -135 2q-36 0 -87 -13t-109.5 -40.5t-108 -64.5t-82.5 -90.5t-33 -112.5q0 -65 42 -112.5t105.5 -69t137.5 -21.5q149 0 315 57q95 140 168 238t159 196t161.5 148.5t138.5 50.5q30 0 51.5 -23.5t21.5 -54.5q0 -78 -91.5 -186t-233.5 -207.5t-291 -161.5 q-61 -106 -113 -188t-117 -172t-135 -164t-143 -129q148 -45 254 -45q143 0 277 51q12 4 16 -8q2 -6 -2 -8q-93 -38 -154.5 -54t-142.5 -16q-131 0 -291 47q-167 -110 -352 -110q-256 0 -256 135zM61 72q0 -31 23 -53.5t58 -32.5t65.5 -14.5t56.5 -4.5q161 0 307 105 q-20 6 -94.5 31.5t-102 34t-76 18.5t-83.5 10q-61 0 -107.5 -23t-46.5 -71zM1223 776q227 102 399 261.5t172 244.5q0 26 -14.5 46t-38.5 20q-55 0 -118 -43.5t-130.5 -126t-131.5 -179t-138 -223.5z" />
<glyph unicode="M" horiz-adv-x="1896" d="M10 287q0 57 17 118.5t43 106.5q-4 40 -4 53q0 86 39.5 162t103 130.5t142.5 94t160.5 59t154.5 19.5q12 0 12 -12q0 -10 -12 -10q-88 0 -186.5 -32t-185 -87t-143.5 -141t-57 -183v-14q68 100 179 178.5t226.5 118t213.5 39.5q105 0 185.5 -56t80.5 -153 q0 -87 -62 -167.5t-151 -132.5t-182.5 -83t-161.5 -31q-116 0 -211 55.5t-129 151.5q-43 -91 -43 -184q0 -127 76.5 -208t201.5 -81q75 0 158 28t182 94.5t178.5 126t202 174.5t193 184t208.5 207l11.5 11.5l11 11l11.5 11.5l74 74l84.5 84.5t72 70.5t85 80.5t73.5 65.5 q20 0 20 -9q0 -3 -6 -12q-66 -74 -120.5 -148.5t-111 -169t-81 -138.5t-86.5 -160q-141 -266 -265 -426q72 84 222 268.5t245.5 298t231.5 250.5t252 221q6 4 12 4q10 0 10 -10q0 -4 -2 -6q-12 -24 -77.5 -123.5t-144.5 -222.5t-158 -257.5t-132 -259.5t-53 -198 q0 -103 65 -103q16 0 38.5 13t37.5 26l15 13q4 4 8.5 2t5.5 -6.5t-2 -8.5q-6 -7 -16.5 -16.5t-39.5 -26t-53 -16.5q-64 0 -94.5 55t-30.5 125q0 51 23 119.5t54 132t88 152t99 148.5t114 153.5t105 135t100 123.5q23 29 34 42q-206 -150 -504 -518q-38 -46 -115.5 -143.5 t-123.5 -153t-110 -130t-120.5 -131t-110.5 -100.5q-24 -16 -28 -6q0 4 3 9.5t6 9.5l3 4q44 57 81.5 120t85.5 156t67 127q115 208 222.5 371t264.5 338q-60 -58 -131.5 -131t-121 -125.5t-133.5 -142.5t-124 -132q-228 -243 -329 -336q-239 -223 -435 -282 q-84 -25 -168 -25q-155 0 -246.5 92t-91.5 234v-4zM100 508q26 -95 117.5 -155t204.5 -60q65 0 154.5 30.5t173 80t142 123.5t58.5 151q0 81 -70.5 130.5t-166.5 49.5t-212.5 -42.5t-227.5 -124.5t-173 -183z" />
<glyph unicode="N" horiz-adv-x="1679" d="M29 365q0 79 35 157t85 133t103 98.5t90 65t45 21.5q10 0 10 -9t-22 -24q-320 -208 -320 -440q0 -55 23 -109q46 144 152.5 267.5t233 193t238.5 69.5q89 0 157.5 -55t68.5 -139q0 -88 -51.5 -182.5t-133.5 -170t-195 -124.5t-226 -49q-71 0 -132.5 31.5t-101.5 86.5 q-10 -58 -10 -104q0 -143 73.5 -239.5t196.5 -96.5q134 0 272.5 126.5t303.5 371.5q71 105 179 278.5t192 309.5t195.5 296t209.5 275l12 -10q-75 -90 -108 -240q-43 -200 -43 -602l165 215q22 189 88 392.5t149.5 340.5t150.5 137q30 0 48.5 -21.5t18.5 -53.5 q0 -79 -84 -254q-116 -244 -348 -553l-20 -117h-11q0 24 4 82l-161 -213q-5 -100 -34.5 -215t-78 -201t-98.5 -86q-29 0 -49.5 20t-20.5 48q0 60 50 149t145 217q-5 154 -5 336q0 84 24.5 180t52 161.5t75.5 166.5q-78 -104 -162 -240t-151.5 -260.5t-145 -261t-145 -250.5 t-147 -219t-156 -178t-168.5 -116.5t-187 -43.5q-134 0 -223.5 107t-89.5 250q0 63 21 149q-39 67 -39 146zM96 221q34 -57 91.5 -90t125.5 -33q108 0 215 44t186.5 113.5t129 160t49.5 180.5q0 69 -56.5 114.5t-129.5 45.5q-111 0 -237.5 -70.5t-231.5 -196t-142 -268.5z M1311 78q0 -20 11 -34.5t32 -14.5q33 0 59.5 58t39.5 137.5t13 156.5q-155 -216 -155 -303zM1757 805q160 213 301 487q53 104 79 168t26 105q0 16 -15.5 35.5t-29.5 19.5q-30 0 -66.5 -38.5t-71 -101t-60.5 -120t-50 -117.5q-60 -152 -113 -438z" />
<glyph unicode="O" horiz-adv-x="1097" d="M90 336q0 103 35 208.5t93.5 198t138 179.5t165 157t176.5 127q190 120 344 146l7 -15q-130 -24 -281 -121.5t-272 -244.5q-334 -403 -334 -703h2q0 -114 59.5 -177.5t155.5 -63.5q191 0 459 303q168 192 278.5 388t110.5 333q0 78 -43 131t-121 53q-79 0 -191.5 -53 t-214.5 -140q-107 -92 -172 -199t-65 -216q0 -53 40.5 -90t96.5 -37q80 0 223 97t273 249l14 -10q-105 -144 -263 -252.5t-253 -108.5q-66 0 -113 43.5t-47 108.5q0 121 79 244t200 216q103 79 214 126t177 47q83 0 136.5 -61t53.5 -146q0 -125 -83 -300t-216 -345 q-325 -408 -587 -408q-66 0 -120 29.5t-87 78.5t-50.5 107.5t-17.5 120.5z" />
<glyph unicode="P" horiz-adv-x="1204" d="M109 309q0 49 12.5 90t39 77.5t51.5 62t67 61.5q14 9 20 0q6 -10 0 -14q-78 -68 -119 -132t-41 -141q0 -119 65 -198.5t175 -79.5q64 0 129 34t115 77.5t120.5 135t111.5 153t122 186.5q-6 -2 -18.5 -5.5t-18.5 -5.5l-4 15l55 18q84 129 139.5 211.5t143 194.5t170.5 196 q-78 47 -195 47q-140 0 -305 -51q45 -70 45 -162q0 -94 -41 -188t-104.5 -164t-143.5 -114t-155 -44q-73 0 -121.5 54t-48.5 133q0 95 72.5 193.5t192 177.5t261.5 126q-40 47 -102 74t-131 27q-135 0 -273 -76q-70 -40 -182 -129q-4 -3 -9 1t-6.5 9.5t1.5 9.5 q52 41 90.5 67.5t103 63t134 55.5t141.5 19q79 0 146.5 -30.5t111.5 -86.5v3q167 53 323 53q122 0 211 -51q31 31 82 75l10 -6q-21 -19 -77 -80q96 -62 96 -161q0 -276 -479 -435q-316 -651 -715 -651q-123 0 -195.5 87.5t-72.5 217.5zM406 754q0 -69 39 -113.5t100 -44.5 q67 0 141.5 41.5t135 107.5t100 155t39.5 177q0 85 -46 150q-180 -57 -323 -174q-87 -71 -136.5 -150t-49.5 -149zM1106 686q65 28 124 59.5t115 72.5t97 83.5t65.5 93.5t24.5 103q0 84 -74 137q-185 -207 -352 -549z" />
<glyph unicode="Q" horiz-adv-x="1478" d="M57 96q0 53 50.5 77t119.5 24q102 0 342 -84q219 92 440.5 250t369 331.5t147.5 294.5q0 63 -42.5 109.5t-99 66t-116.5 19.5h-15q70 -70 70 -164q0 -80 -49 -169.5t-123.5 -160t-170.5 -117.5t-183 -47q-86 0 -150.5 52t-64.5 133q0 190 184 329q187 140 420 164 q-79 47 -168 47q-162 0 -330 -77l-18 6q71 36 107.5 52t101 31t137.5 15q122 0 211 -70q18 2 55 2q121 0 212 -78.5t91 -201.5q0 -91 -60 -191t-159 -190.5t-227 -176.5t-261.5 -154.5t-265.5 -119.5q93 -33 140.5 -49t116.5 -32.5t116 -16.5q86 0 154.5 21t150.5 67l10 -14 q-93 -60 -164 -87.5t-165 -27.5q-71 0 -156 19t-137.5 37.5t-145.5 54.5q-198 -68 -311 -68q-164 0 -164 94zM88 96q0 -67 135 -67q117 0 271 55q-68 26 -106 39.5t-88.5 26t-88.5 12.5q-123 0 -123 -66zM612 717q0 -69 53.5 -116.5t125.5 -47.5q66 0 155.5 40t167.5 107 q180 155 180 326q0 94 -75 156q-103 -8 -208.5 -44.5t-195 -94.5t-146.5 -144t-57 -182z" />
<glyph unicode="R" horiz-adv-x="1323" d="M51 272q0 80 50 156t128 133q5 4 10.5 2.5t6 -6t-5.5 -10.5q-74 -56 -121 -128.5t-47 -146.5q0 -122 66 -200t173 -78q48 0 97.5 18t92 44.5t93.5 76t88.5 92t91.5 114t88 120t92 132.5l1.5 1.5t0.5 1.5q260 380 459 569q-89 54 -225 54q-137 0 -281 -39q39 -61 39 -140 q0 -128 -70 -249t-172.5 -192t-199.5 -71q-75 0 -124.5 49t-49.5 123q0 99 73 197t194.5 174t270.5 121q-39 51 -103.5 79.5t-145.5 28.5q-59 0 -116.5 -14t-95 -30t-98.5 -46l-10 11q169 104 334 104q77 0 146.5 -33.5t113.5 -91.5q146 41 299 41q142 0 236 -61 q42 38 75 65l8 -10q-14 -11 -38.5 -34t-32.5 -30q94 -70 94 -180q0 -75 -51 -144t-130.5 -118.5t-160.5 -83.5t-158 -53q-1 -1 -2 -3t-2 -3q113 24 187 24q79 0 79 -69q0 -37 -40.5 -106.5t-88.5 -133.5t-88.5 -131.5t-40.5 -101.5q0 -19 17.5 -33.5t32.5 -14.5 q7 0 16.5 2.5t11.5 2.5q17 0 17 -9q0 -7 -13.5 -12.5t-27.5 -5.5q-47 0 -73 30t-26 74q0 59 39.5 132.5t86.5 130t86.5 113.5t39.5 87q0 23 -33 23q-22 0 -41.5 -1t-40.5 -4t-33.5 -4.5t-38.5 -6.5t-38 -7q-163 -292 -344.5 -445t-358.5 -153q-127 0 -197.5 87.5 t-70.5 219.5zM356 698q0 -66 44 -107.5t112 -41.5q61 0 133.5 40.5t135 104.5t104 154t41.5 180q0 79 -41 141q-223 -67 -376 -198t-153 -273zM1044 606q72 26 144.5 64t145 91.5t118 124t45.5 144.5q0 75 -70 125q-108 -107 -191 -229.5t-192 -319.5z" />
<glyph unicode="S" horiz-adv-x="1374" d="M31 457q0 88 31 170.5t82.5 146t111 111.5t123.5 80l4 -13v-2q-127 -68 -224.5 -203.5t-97.5 -295.5q0 -111 60.5 -193t165.5 -113q-45 76 -45 168q0 119 55.5 234.5t140 198t186.5 135.5t195 57q-2 10 -2 31q0 100 53 176.5t123 116.5l4 -9q-70 -52 -111.5 -117 t-41.5 -163q0 -13 4 -33q74 -3 134 -43t83 -104h18q171 0 351 84q136 228 242 361.5t175 133.5q24 0 38 -15.5t14 -39.5q0 -59 -84 -164q-130 -159 -324 -266q-17 -34 -51 -105q-54 -111 -83 -169t-86.5 -160t-100.5 -158.5t-110.5 -130t-132 -111.5t-149 -66t-176.5 -28 q-87 0 -166 41t-131 111q-124 25 -201 121.5t-77 224.5zM272 301q0 -89 52 -166q38 -6 79 -6q137 0 259 64q169 88 282 253q103 150 103 281q0 19 -7 43q-77 6 -138 46t-81 104h2q-98 -3 -199.5 -62t-178 -148t-125 -199t-48.5 -210zM350 104q48 -56 116 -88t142 -32 q73 0 146.5 33t141 93.5t131.5 136t127 170.5t118.5 186.5t115.5 193.5q18 32 27 47q-173 -78 -344 -78l-4 4q6 -21 6 -45q0 -142 -108 -293q-100 -143 -250.5 -235.5t-333.5 -92.5h-31zM852 918q18 -52 67.5 -82.5t114.5 -38.5l2 -2q-22 52 -72 85t-112 38zM1509 911 q155 91 267 217.5t112 184.5q0 16 -10 27.5t-27 11.5q-58 0 -150 -121t-192 -320z" />
<glyph unicode="T" horiz-adv-x="1122" d="M68 233q0 51 26.5 101.5t64.5 86t78 57.5t68 22q11 0 14 -6t0 -12t-8 -7q-61 -6 -118 -57q-40 -36 -65.5 -86t-25.5 -105q0 -98 76.5 -146t186.5 -48q123 0 246.5 81t213.5 218q37 56 161 256.5t213.5 326t176.5 211.5q-102 4 -302.5 31t-346.5 27q-82 0 -158 -11 t-148 -37t-125.5 -64.5t-85.5 -97.5t-32 -132q0 -137 156 -205v18q0 94 58.5 169t147 113t185.5 38q113 0 189.5 -43t76.5 -129q0 -66 -36.5 -116t-97.5 -77.5t-129.5 -41t-141.5 -13.5q-103 0 -205 31q32 -58 106 -87.5t160 -29.5q93 0 195 35q6 2 9 -8t-9 -13 q-123 -41 -195 -41q-113 0 -197 40t-108 118q-87 34 -138.5 94.5t-51.5 145.5q0 99 56 178.5t144 125.5t185.5 69.5t191.5 23.5q143 0 351 -41.5t319 -46.5q171 164 266 164q27 0 44 -15t17 -41q0 -44 -45 -75.5t-101.5 -44.5t-111.5 -13h-55q-100 -90 -207 -295 q-21 -40 -87.5 -174t-114.5 -215.5t-101 -144.5q-113 -135 -252 -214t-289 -79q-77 0 -141.5 23t-108.5 77t-44 131zM362 662q0 -20 7 -41l-2 -3q95 -34 223 -34q61 0 121.5 10.5t120 33t96.5 67.5t37 106q0 51 -36 85.5t-82 47t-95 12.5q-64 0 -130.5 -18.5t-125.5 -52.5 t-96.5 -90t-37.5 -123zM1436 1145h32q51 0 93.5 8.5t68.5 21.5t44 28t25 27.5t7 20.5q0 14 -11 26.5t-32 12.5q-42 0 -108 -45t-119 -100z" />
<glyph unicode="U" horiz-adv-x="1134" d="M70 928q27 42 59.5 81.5t80 85t105.5 73.5t115 28q60 0 102 -27q90 41 168 41q69 0 118.5 -51.5t49.5 -120.5q0 -75 -49.5 -185t-121 -220t-142.5 -215t-120.5 -196.5t-49.5 -139.5q0 -33 19 -53.5t47 -20.5q56 0 172.5 134.5t281.5 365.5q183 258 455 670h82l-465 -746 q-56 -91 -91.5 -177.5t-35.5 -129.5q0 -49 15.5 -73.5t56.5 -24.5q20 0 39.5 8t27.5 14t31 25q1 1 4.5 3.5t5.5 2.5q10 0 10 -10q0 -5 -4 -9q-21 -21 -34 -31.5t-35 -20t-47 -9.5q-50 0 -80.5 43t-30.5 107q0 107 82 280q-155 -209 -221 -284q-142 -161 -224 -162 q-106 0 -106 147q0 125 149 350q33 51 107.5 158t113.5 166t74 133.5t35 122.5q0 60 -34 93.5t-89 33.5q-66 0 -147 -33q47 -44 47 -131q0 -110 -66 -245.5t-161 -229.5t-172 -94q-51 0 -85 39.5t-34 93.5q0 104 62 217.5t157 203.5t201 144q-30 18 -70 18 q-48 0 -101.5 -26.5t-102 -69.5t-81.5 -79t-63 -74zM109 588q0 -44 23.5 -76.5t62.5 -32.5q48 0 111.5 53.5t119 133.5t94.5 185.5t39 199.5q0 51 -43 88q-160 -80 -283.5 -243.5t-123.5 -307.5z" />
<glyph unicode="V" horiz-adv-x="1073" d="M70 956q-3 4 -3 7t3 6q33 36 82.5 77t114.5 83t142 69t146 27q98 0 164 -60q61 11 96 11q90 0 154.5 -56.5t64.5 -142.5q0 -68 -41.5 -156.5t-109.5 -183.5t-140 -188.5t-149 -202t-121 -193.5q117 140 325 352t373 355q126 226 280 404.5t226 178.5q14 0 26.5 -12 t12.5 -31q0 -18 -11 -41.5t-33 -53t-47 -58.5t-63 -66t-69.5 -67.5t-77.5 -71.5t-77 -68.5t-77.5 -68.5t-70.5 -62q-16 -26 -40 -73t-36 -68q-6 -11 -17 -8q-7 2 -5 8q24 53 43 90q-396 -358 -719 -737q-10 0 -27.5 18.5t-17.5 26.5q0 13 33.5 77t78.5 128l387 555 q50 69 78.5 139.5t28.5 110.5q0 62 -44.5 100.5t-109.5 38.5q-24 0 -82 -8q50 -60 50 -150q0 -167 -138 -354q-82 -112 -187 -184t-202 -72q-78 0 -134 55t-56 133q0 93 57.5 191t147 176t198 137.5t211.5 85.5q-53 41 -129 41q-73 0 -150 -27t-140.5 -69.5t-106.5 -78.5 t-74 -69q-9 -9 -18 0zM106 569q0 -68 45.5 -117t112.5 -49q71 0 159 56t162 140t124.5 192t50.5 204q0 89 -47 142q-103 -22 -210.5 -79.5t-195.5 -133t-144.5 -171t-56.5 -184.5zM1231 809q172 147 321.5 296t149.5 193q0 13 -9.5 21t-19.5 8q-57 0 -185.5 -154.5 t-256.5 -363.5z" />
<glyph unicode="W" horiz-adv-x="1335" d="M76 1042q39 47 88.5 92t109 88t127.5 69t129 26q75 0 136 -39q88 31 161 31q89 0 141 -58.5t52 -146.5q0 -167 -260 -586q-29 -48 -76.5 -123.5t-74.5 -120t-56.5 -95t-43 -82t-13.5 -48.5q0 -20 20 -20q7 0 14 3t15.5 10t15.5 14t17.5 21l18 24t20 28.5t20 30.5t22.5 35 t23 36q18 28 106.5 166t138.5 214.5t128 193.5t137 201q65 90 131.5 169t104.5 116.5t45 37.5q8 0 8 -10q0 -1 -12.5 -22t-37.5 -65t-49 -89q-177 -337 -338 -677.5t-161 -424.5q0 -14 16 -14q24 0 98 107t170 276q255 447 447 704q99 132 188 221t154 121l4 -10 q-40 -20 -108.5 -86.5t-145.5 -165.5q-119 -152 -252 -359.5t-240 -404.5q-237 -436 -325 -436q-31 0 -46.5 27.5t-15.5 64.5q0 84 61 238t154 324t180.5 315.5t161.5 255.5q-48 -53 -107 -132.5t-131 -188t-122 -185.5t-132.5 -208t-109.5 -173q-104 -161 -170 -248.5 t-98 -87.5q-24 0 -43.5 25.5t-19.5 54.5q0 75 56.5 185.5t162.5 277.5q159 249 203 326q100 180 100 272q0 69 -43.5 109t-104.5 40q-64 0 -135 -26q76 -66 76 -177q0 -109 -46 -231.5t-116 -218.5t-158.5 -159.5t-166.5 -63.5q-92 0 -143.5 64t-51.5 155q0 88 48.5 186.5 t126.5 183.5t176.5 156t197.5 111q-43 24 -101 24q-52 0 -107.5 -18.5t-96.5 -41t-93.5 -64t-76.5 -63.5t-68 -65zM102 610q0 -72 50 -126t122 -54q78 0 164 72t149.5 173.5t105.5 212.5t42 189q0 110 -73 170q-95 -39 -193 -108.5t-180.5 -154t-134.5 -184.5t-52 -190z" />
<glyph unicode="X" horiz-adv-x="1353" d="M127 0q0 30 16 63.5t51.5 69.5t74 69.5t103 75.5t117.5 75.5t137 80.5t143.5 79t154.5 83q122 161 195 306.5t73 246.5q0 83 -47 130.5t-123 47.5q-56 0 -139 -27q90 -80 90 -202q0 -98 -56 -213.5t-137 -205.5t-173.5 -151t-162.5 -61q-57 0 -100 44t-43 107 q0 103 46.5 212.5t123 200.5t172.5 165t195 115q-50 35 -115 35q-243 0 -467 -299q-11 -11 -16 -11q-4 0 -7 6t0 9q38 57 82.5 108t104.5 100t134.5 78t152.5 29q83 0 153 -47q94 33 166 33q99 0 166.5 -78t67.5 -187q0 -161 -162 -399q13 6 35.5 17.5t31.5 15.5 q108 166 258 320t278.5 242.5t194.5 88.5q33 0 52.5 -19t19.5 -48q0 -182 -680 -555q-237 -377 -237 -621q0 -55 26.5 -80.5t67.5 -25.5q23 0 57.5 16t38.5 16q12 0 12 -14q0 -10 -39.5 -28.5t-72.5 -18.5q-78 0 -119 66.5t-41 158.5q0 199 149 447q-10 -5 -36.5 -19.5 t-40.5 -21.5q-126 -170 -300 -334.5t-323.5 -262.5t-220.5 -98q-31 0 -56.5 19.5t-25.5 50.5zM154 0q0 -41 59 -41q82 0 256 147q215 185 405 426q-94 -49 -161.5 -85t-148 -81.5t-135.5 -80.5t-111 -76t-89 -74.5t-54 -68.5t-21 -66zM330 610q0 -46 36.5 -82t82.5 -36 q58 0 144 59t164 146t133.5 199t55.5 206q0 53 -23 104t-63 86q-93 -37 -186.5 -106.5t-167.5 -157.5q-81 -96 -128.5 -204.5t-47.5 -213.5zM1323 805q16 9 72.5 39.5t85.5 48.5q203 121 335 233t132 183q0 20 -13.5 33.5t-33.5 13.5q-49 0 -128 -54t-171 -149 q-151 -158 -279 -348z" />
<glyph unicode="Y" horiz-adv-x="1097" d="M-285 -365q0 80 35.5 150.5t91.5 117t123.5 73t134.5 26.5q97 0 158 -50.5t61 -141.5q0 -107 -86 -184.5t-190 -92.5v16q94 12 166 87.5t72 166.5q0 81 -47 125.5t-128 44.5q-84 0 -165 -42t-135 -122t-54 -176q0 -106 69 -180t179 -74q68 0 138 30.5t129 77.5 t121.5 118.5t110.5 139t100.5 153.5t86 147t74 135.5t57.5 104.5q-25 -28 -59.5 -73.5t-60.5 -78t-58 -65.5t-65.5 -50.5t-69.5 -17.5q-59 0 -94 42t-35 122q0 35 8 72.5t30 86.5t36.5 80.5t53.5 95t53 86t63.5 97.5t58.5 88q84 127 130 218.5t46 156.5q0 48 -36 85.5 t-83 37.5q-72 0 -172 -54q60 -63 60 -153q0 -99 -44.5 -217.5t-108 -212.5t-136 -157.5t-125.5 -63.5q-56 0 -89.5 51.5t-33.5 120.5q0 156 131.5 344t300.5 291q-43 32 -98 32q-54 0 -102.5 -17t-88.5 -48.5t-71.5 -63t-66.5 -72.5q-5 -6 -8.5 -10t-6.5 -8l-15 8 q64 98 156.5 167t202.5 69q72 0 125 -41q105 57 194 57q70 0 116 -53t46 -133q0 -75 -48 -186t-116.5 -223t-137.5 -221t-117 -207t-48 -154q0 -34 16.5 -57t47.5 -23q30 0 60 16.5t70 61.5t61.5 73t74.5 101q15 20 22 30q166 229 291 435l264 446h91l-682 -1196 q-39 -69 -93 -146.5t-132.5 -168t-160.5 -161t-179 -118t-185 -47.5q-121 0 -203 79.5t-82 196.5zM129 575q0 -52 22 -90.5t64 -38.5q39 0 101.5 58.5t122 144.5t102.5 198t43 206q0 92 -47 145q-102 -64 -194.5 -165t-153 -225t-60.5 -233z" />
<glyph unicode="Z" horiz-adv-x="1116" d="M66 59q0 40 36 64t82 24q68 0 150 -20q109 116 264 451q97 212 363 448q-51 7 -128.5 25t-149 29.5t-146.5 11.5q-97 0 -171.5 -48.5t-74.5 -132.5q0 -47 44.5 -72.5t102.5 -25.5q71 0 131 16l4 -10q-86 -39 -153 -39q-62 0 -109 34.5t-47 90.5q0 97 84.5 164.5 t202.5 67.5q79 0 154.5 -16t155 -39.5t124.5 -32.5q111 90 195 90q22 0 36.5 -11.5t14.5 -29.5q0 -37 -48 -58.5t-93 -21.5q-56 0 -103 6q-83 -77 -160.5 -202.5t-162.5 -288.5t-142 -250q-74 -113 -133 -170q9 -3 50.5 -15.5t55.5 -16.5t50 -13t57 -12.5t51.5 -7t57.5 -3.5 q101 0 188.5 51.5t87.5 124.5q0 60 -59 99.5t-117 39.5q-86 0 -131 -36l-16 6q25 25 66.5 42t88.5 17q77 0 134 -50.5t57 -117.5t-52.5 -119.5t-120.5 -77t-132 -24.5q-43 0 -92.5 9.5t-82 19.5t-89.5 29.5t-81 27.5q-99 -86 -200 -86q-37 0 -65.5 14.5t-28.5 44.5zM98 55 q0 -32 58 -32q69 0 151 79q-66 17 -119 17q-36 0 -63 -17t-27 -47zM1012 1044q38 -6 73 -6q27 0 55.5 6t52.5 21t24 37q0 20 -41 20q-70 0 -164 -78z" />
<glyph unicode="[" horiz-adv-x="722" d="M227 -307l475 1351h269l-13 -36h-188l-451 -1280h189l-12 -35h-269z" />
<glyph unicode="\" horiz-adv-x="1212" d="M393 1044h47l690 -1044h-51z" />
<glyph unicode="]" horiz-adv-x="706" d="M47 -307l12 35h189l450 1280h-188l12 36h266l-475 -1351h-266z" />
<glyph unicode="^" horiz-adv-x="452" d="M264 492v8q133 99 209 211h16q41 -142 105 -226h-16q-25 17 -46 41.5t-32.5 43.5t-28.5 51q-126 -106 -207 -129z" />
<glyph unicode="_" horiz-adv-x="1036" d="M-20 -231h1075v-37h-1075v37z" />
<glyph unicode="`" horiz-adv-x="452" d="M395 686q0 14 10 24.5t23 10.5q43 0 49 -57q2 -15 5.5 -27t6.5 -21.5t10.5 -20.5t11 -16.5t16 -17.5t17.5 -17t22.5 -21t25.5 -23l-6 -8q-67 30 -129 84.5t-62 109.5z" />
<glyph unicode="a" horiz-adv-x="444" d="M-55 82q0 55 39.5 123.5t93.5 123t111 91.5t90 37q39 0 63 -35l14 16h68l-201 -344q-22 -37 -22 -57q0 -29 20 -29q17 0 42 18t60 57.5t55 64.5t59 75q12 16 18 23h24q-4 -5 -28 -37.5t-36 -48.5t-37.5 -47.5t-43 -49t-39.5 -38t-40.5 -30t-33.5 -9.5q-27 0 -45 19.5 t-18 47.5q0 15 5.5 34.5t6.5 25.5q-39 -46 -83.5 -81.5t-76.5 -35.5q-28 0 -46.5 26t-18.5 60zM-6 55q0 -35 24 -35q33 0 89 60.5t94 116.5l92 137q26 43 26 63q0 37 -34 37q-38 0 -108.5 -71.5t-126.5 -163.5t-56 -144z" />
<glyph unicode="b" horiz-adv-x="346" d="M-41 80q0 126 272 567q241 391 316 391q16 0 31.5 -10t15.5 -27q0 -48 -76 -160t-166.5 -218.5t-193.5 -216.5q-164 -291 -164 -343q0 -23 10 -39t29 -16q27 0 79 56.5t101 134.5q-39 25 -39 77q0 43 40 105.5t77 62.5q18 0 26.5 -15.5t8.5 -31.5q0 -51 -84 -190 q20 -4 32 -4q39 0 82 43h25q-60 -64 -107 -64q-19 0 -43 8q-129 -204 -196 -204q-33 0 -54.5 31t-21.5 63zM195 276q0 -40 28 -59q82 136 82 180q0 11 -4.5 19t-9.5 8q-25 0 -60.5 -55.5t-35.5 -92.5zM201 483q149 163 261.5 311.5t112.5 202.5q0 21 -24 21 q-18 0 -54.5 -45.5t-79.5 -115t-98 -166t-105 -184.5q-9 -16 -13 -24z" />
<glyph unicode="c" horiz-adv-x="333" d="M-37 90q0 64 34.5 132.5t83.5 119t101.5 83t89.5 32.5q27 0 46.5 -17t19.5 -43q0 -31 -20.5 -56.5t-45.5 -25.5q-10 0 -17 7t-7 18q0 15 12 27t27 12l14 -2q10 13 10 29q0 11 -12 19.5t-25 8.5q-32 0 -93 -60.5t-112 -152.5t-51 -164q0 -25 20 -40t48 -15q94 0 258 244 h25q-8 -12 -30 -44t-32.5 -47.5t-32 -43.5t-36 -43t-36 -35.5t-39.5 -30.5t-40.5 -17.5t-44.5 -7.5q-50 0 -82.5 32t-32.5 81z" />
<glyph unicode="d" horiz-adv-x="434" d="M-45 76q0 74 52 165.5t122 153.5t121 62q44 0 69 -51l328 565h60l-492 -877q-22 -37 -22 -57q0 -29 20 -29q9 0 19.5 4.5t23.5 15.5t24.5 21t28 28.5t27.5 31t29.5 35.5t27.5 34.5t28 35.5t25 32h25q-4 -5 -28 -37.5t-36 -48.5t-37.5 -47.5t-43 -49t-39.5 -38t-40.5 -30 t-33.5 -9.5q-27 0 -45 19.5t-18 47.5q0 15 5.5 34.5t6.5 25.5q-2 -3 -11.5 -15.5t-13 -17t-13 -16t-14.5 -17t-14 -15t-14.5 -14t-14.5 -11t-16 -9.5t-15 -5.5t-16 -2.5q-28 0 -46.5 26t-18.5 60zM0 47q0 -14 8 -23.5t21 -9.5q7 0 15.5 4.5t19 13.5t20 19t21.5 25t21 26 t20.5 28t18 25.5t16.5 23.5l12 18l71 110q10 17 19.5 43t9.5 37q0 16 -10 31.5t-23 15.5q-35 0 -98 -73.5t-112.5 -167.5t-49.5 -146z" />
<glyph unicode="e" horiz-adv-x="333" d="M-37 90q0 64 34.5 132.5t83.5 119t101.5 83t89.5 32.5q26 0 42 -15t16 -41q0 -67 -86.5 -121.5t-182.5 -72.5q-43 -81 -43 -150q0 -25 20 -40t48 -15q94 0 258 244h25q-8 -12 -30 -44t-32.5 -47.5t-32 -43.5t-36 -43t-36 -35.5t-39.5 -30.5t-40.5 -17.5t-44.5 -7.5 q-50 0 -82.5 32t-32.5 81zM80 238q78 18 149.5 70t71.5 98q0 12 -7.5 20t-19.5 8q-31 0 -90 -59t-104 -137z" />
<glyph unicode="f" horiz-adv-x="239" d="M-387 -549q0 34 19 87.5t68.5 148t75.5 141t97 170.5q14 25 21 37q43 75 88.5 160.5t74.5 140t39 70.5l328 565h59l-483 -860q16 -20 16 -72q0 -19 -2 -31h2q17 0 42 18t60 57.5t55 64.5t59 75q12 16 18 23h24q-4 -5 -28 -37.5t-36 -48.5t-37.5 -47.5t-43 -49t-39.5 -38 t-40.5 -30t-33.5 -9.5h-6q-20 -98 -74.5 -239t-129 -259.5t-130.5 -118.5q-29 0 -46 24.5t-17 57.5zM-344 -569q0 -15 4.5 -28t11.5 -13q30 0 99 111t133 258t78 237q-23 15 -29 37q-297 -503 -297 -602zM-29 63q1 -18 13 -34l-7 45q-4 -7 -6 -11z" />
<glyph unicode="g" horiz-adv-x="432" d="M-330 -575q0 96 96 211.5t240 213.5l109 195q-25 -27 -46 -40t-53 -13q-28 0 -46.5 26t-18.5 60q0 55 35 124.5t83.5 124t101 92.5t85.5 38q28 0 45 -15.5t21 -33.5l22 30h68l-293 -516q57 38 100 78q114 107 223 246h25q-3 -3 -22.5 -30t-30 -40t-35 -43.5t-43.5 -51 t-49.5 -51.5t-58.5 -55t-64.5 -52t-73.5 -52l-39 -70q-2 -3 -34.5 -66.5t-62 -115t-70.5 -114.5t-82.5 -99.5t-75.5 -36.5q-19 0 -37.5 17.5t-18.5 38.5zM-295 -567q0 -39 23 -39q8 0 20.5 13t31 42.5t30.5 50t37 65.5t32 58l98 176q-110 -82 -191 -194t-81 -172zM0 51 q0 -35 25 -35q43 0 159 168l88 138q23 38 23 75t-33 37q-37 0 -100.5 -72.5t-112.5 -165t-49 -145.5z" />
<glyph unicode="h" horiz-adv-x="428" d="M-131 0l424 745q25 44 71 108.5t104 124.5t89 60q24 0 33.5 -11t9.5 -36q0 -56 -139.5 -241.5t-286.5 -339.5l-55 -99q89 80 121 101q39 24 67 24q22 0 36.5 -19t14.5 -44t-35 -96.5t-71 -130.5l-35 -58q-3 -4 -9 -14l-9 -15t-6 -13t-3 -15q0 -19 19 -19q9 0 19.5 4.5 t23 14.5t24 20.5t27.5 28t27 30.5t28.5 34.5t27.5 34.5t27.5 35.5l24.5 31.5h25q-7 -9 -28 -38t-35.5 -48t-38 -49t-42.5 -50t-40 -39.5t-40 -29.5t-34 -10q-28 0 -46 18.5t-18 46.5q0 40 42.5 118t85 146.5t42.5 85.5q0 15 -14 15q-28 0 -124.5 -90.5t-147.5 -178.5 l-80 -143h-76zM229 506q90 89 222.5 270t132.5 217q0 11 -5 18t-12 7q-23 0 -55 -35t-55 -73t-55 -94q-5 -9 -7 -13z" />
<glyph unicode="i" horiz-adv-x="200" d="M-86 49q0 34 35 94l172 295l72 -2l-209 -352q-23 -38 -23 -57q0 -11 3 -15t13 -4q23 0 65.5 39t75.5 79.5t80 100.5l4.5 6t4 5t4.5 6h25q-1 -2 -27 -37t-37 -49t-37.5 -47t-43.5 -49.5t-39.5 -38t-41 -30.5t-33.5 -9q-63 0 -63 65zM211 594q0 22 19.5 45t39.5 23 q10 0 17.5 -9t7.5 -20q0 -19 -18.5 -43.5t-36.5 -24.5q-12 0 -20.5 8.5t-8.5 20.5z" />
<glyph unicode="j" horiz-adv-x="210" d="M-551 -530q0 72 54 151.5t128 141.5t166 118l324 557h72l-287 -495q70 43 132.5 99.5t94.5 94t75 92.5q9 11 13 17h25q-2 -3 -31 -42t-44.5 -58.5t-52.5 -61t-69 -70.5t-80 -65t-98 -64l-137 -237q-92 -157 -149 -211q-41 -39 -72 -39q-29 0 -46.5 21t-17.5 51z M-522 -535q0 -18 10.5 -32.5t26.5 -14.5q8 0 23 17.5t32.5 47t33 57t31.5 57.5t21 38l111 193q-123 -76 -206 -177.5t-83 -185.5zM211 594q0 22 19.5 45t39.5 23q10 0 17.5 -9t7.5 -20q0 -19 -18.5 -43.5t-36.5 -24.5q-12 0 -20.5 8.5t-8.5 20.5z" />
<glyph unicode="k" horiz-adv-x="419" d="M-131 0l424 745q28 50 69 110t100 121.5t95 61.5q41 0 41 -47q0 -56 -138 -239.5t-286 -341.5l-55 -99q140 140 192 140q31 0 48.5 -22t17.5 -48q0 -31 -48.5 -83t-107.5 -81q27 -27 27 -61q0 -21 -30 -71t-30 -58q0 -7 4 -12t9 -5q8 0 18.5 4.5t23 15t24 21t27.5 28 t27.5 30.5t29 35t27 34.5t27.5 35.5t25 32h25q-5 -7 -27.5 -37.5t-36.5 -48.5t-38 -48.5t-42 -49.5t-39.5 -39t-40.5 -29.5t-34 -9.5q-28 0 -45 17.5t-17 45.5q0 15 34 65t34 87q0 8 -2 10q-27 -12 -58 -12q-34 0 -34 24q0 27 41 27q23 0 49 -15q45 29 85 89.5t40 80.5 q0 27 -17 27q-36 0 -131.5 -95t-150.5 -192l-80 -143h-76zM133 223q0 -6 12 -6q18 0 33 6q-18 6 -28 6q-17 0 -17 -6zM229 506q90 93 221.5 271.5t131.5 213.5q0 27 -19 27q-9 0 -18 -4t-19 -13t-18.5 -18t-19.5 -25t-19 -27.5t-20 -32t-18.5 -31.5t-18.5 -33t-17 -31z" />
<glyph unicode="l" horiz-adv-x="204" d="M-82 51q0 32 35 92l287 514q22 38 55 90.5t82.5 123.5t97.5 119t76 48q47 0 47 -45q0 -30 -42.5 -99t-103.5 -146.5t-122 -150.5t-104 -121l-42 -48l-196 -342q-23 -38 -23 -57q0 -11 3.5 -15t13.5 -4q23 0 64 38t74.5 78.5t78.5 98.5q11 14 16 21h25q-4 -5 -28 -37.5 t-36 -48.5t-37.5 -47.5t-43 -49t-39.5 -38t-40.5 -30t-33.5 -9.5q-64 0 -64 65zM227 506q218 262 279 347q74 103 74 138q0 27 -19 27q-22 0 -51 -30t-68.5 -94.5t-68 -114.5t-78 -144t-68.5 -129z" />
<glyph unicode="m" horiz-adv-x="802" d="M10 244q15 17 42.5 53t45.5 57.5t42.5 46t46 36.5t42.5 12q24 0 43 -15t19 -37q0 -13 -3.5 -25t-9 -27.5t-8.5 -25.5q116 121 181 121q25 0 42 -17t17 -42q0 -24 -21 -68q108 117 173 117q27 0 44 -19.5t17 -45.5q0 -34 -41.5 -108t-83 -143t-41.5 -91q0 -19 14 -19 q19 0 48 22t68 67t63 74t63 79h25q-119 -156 -175 -209q-58 -55 -92 -55q-28 0 -43.5 17.5t-15.5 39.5q0 45 41.5 121.5t83 143t41.5 87.5t-19 21q-42 0 -109.5 -71.5t-111.5 -141.5l-123 -199h-69l180 322q33 59 33 75q0 9 -6 15t-15 6q-34 0 -107.5 -72.5t-113.5 -140.5 l-121 -205h-69l137 246q74 137 74 162q0 6 -4.5 12t-10.5 6q-22 0 -58.5 -32.5t-63 -64t-66.5 -83.5z" />
<glyph unicode="n" horiz-adv-x="579" d="M10 246q15 17 42.5 53t45.5 57.5t42.5 46t46 36.5t42.5 12q24 0 43 -15t19 -37q0 -36 -25 -84v-2q108 117 172 117q27 0 44.5 -19.5t17.5 -45.5q0 -34 -41.5 -108t-83 -143t-41.5 -91q0 -19 14 -19q19 0 48 22t68 67t63 74t63 79h24q-6 -8 -32 -42.5t-39 -51t-38 -48 t-42 -48.5t-38 -36.5t-39 -28.5t-32 -9q-29 0 -47 18t-18 39q0 45 41.5 121.5t83 143t41.5 87.5t-19 21q-43 0 -111.5 -70.5t-107.5 -136.5l-121 -205h-69l137 246q74 137 74 162q0 6 -4.5 12t-10.5 6q-22 0 -58.5 -32.5t-63 -64t-66.5 -83.5h-25z" />
<glyph unicode="o" d="M-47 80q0 65 40 137t93 123t102 85t70 34q14 0 14 -8t-10 -15q-64 -34 -159 -160t-95 -223q0 -47 35 -47q34 0 81 49.5t93 124.5q-45 27 -45 88q0 44 24.5 88.5t57.5 69.5q22 16 41 16q20 0 32.5 -16t12.5 -37q0 -58 -82 -201q10 -2 33 -2q52 0 100 60h25 q-22 -25 -35.5 -38.5t-41.5 -28.5t-56 -15q-13 0 -37 4q-119 -191 -207 -191q-37 0 -61.5 31.5t-24.5 71.5zM203 266q0 -49 26 -65q82 140 82 192q0 29 -18 29q-9 0 -30 -23.5t-40.5 -62t-19.5 -70.5z" />
<glyph unicode="p" horiz-adv-x="462" d="M-426 -510l547 948h69l-14 -32q40 32 105 32q30 0 49.5 -25t19.5 -57q0 -55 -67 -178.5t-148 -171.5q20 -6 49 -6q100 0 287 246h27q-29 -40 -47.5 -64t-56.5 -67t-68 -68.5t-69 -46t-73 -20.5q-52 0 -78 16q-35 -10 -43 -10q-67 0 -67 98v18l-356 -612h-66zM8 121 q12 4 17 4q18 0 18 -8q3 -64 49 -92q79 73 141 180.5t62 181.5q0 12 -5.5 22.5t-15.5 10.5q-44 0 -94 -44t-67 -75z" />
<glyph unicode="q" horiz-adv-x="413" d="M-186 -594l297 625q-3 -3 -9.5 -9t-9 -8t-8 -6.5t-7.5 -6t-7 -4.5t-7.5 -4l-7.5 -3t-9 -2.5t-8.5 -1t-10.5 -0.5q-29 0 -50.5 26.5t-21.5 59.5q0 75 50 167t119.5 155t123.5 63q38 0 63 -35l15 22h55l-377 -778q36 51 124.5 177.5t155 217.5t142.5 185h23 q-25 -34 -172 -246.5t-281 -407.5l-135 -196q-5 -4 -14.5 -4t-22.5 4q-11 5 -10 10zM0 45q0 -13 9.5 -22t23.5 -9q13 0 48 36.5t60 72.5l123 209q25 48 25 65q0 37 -35 37q-37 0 -98.5 -74t-108.5 -168t-47 -147z" />
<glyph unicode="r" horiz-adv-x="305" d="M10 246l99 147q-23 7 -23 33q0 24 31.5 61t52.5 37q8 0 14 -5.5t6 -12.5q0 -9 -17 -36t-17 -30q0 -14 22 -14q6 0 14.5 2t14.5 2q21 0 36 -9.5t15 -27.5q0 -24 -18 -51l-152 -256q-22 -37 -22 -57q0 -11 3 -15t13 -4q23 0 64 38t74.5 78.5t78.5 98.5q11 14 16 21h25 q-4 -5 -28 -37.5t-36 -48.5t-37.5 -47.5t-43 -49t-39.5 -38t-40.5 -30t-33.5 -9.5q-64 0 -64 65q0 32 35 92l119 203q29 43 29 51q0 6 -8 6q-11 0 -31 -5.5t-29 -6.5l-98 -145h-25z" />
<glyph unicode="s" horiz-adv-x="280" d="M-76 100q0 11 4 26t8 24l5 10q8 28 22 53q21 35 49 35l146 209q7 10 9 26t5 23q20 39 39 39q16 0 16 -15q0 -12 -12.5 -34.5t-24.5 -39.5l-12 -16q31 -148 31 -252q0 -84 -50 -143t-118 -59q-53 0 -85 32.5t-32 81.5zM-47 106q0 -37 23 -65.5t57 -28.5q39 0 69.5 49.5 t45 117t14.5 134.5l-4 105l-127 -178q10 -10 10 -27q0 -19 -22.5 -44.5t-36.5 -25.5l-17 2q-12 -23 -12 -39z" />
<glyph unicode="t" horiz-adv-x="200" d="M-86 51q0 32 35 92l287 502h-142q-10 0 -10 10q0 11 10 11h154l114 200h62l-113 -200h160q10 0 10 -11q0 -10 -10 -10h-172l-315 -559q-23 -38 -23 -57q0 -11 3 -15t13 -4q23 0 65.5 39t75.5 79.5t80 100.5l4.5 6t4 5t4.5 6h25q-1 -2 -27 -37t-37 -49t-37.5 -47 t-43.5 -49.5t-39.5 -38t-41 -30.5t-33.5 -9q-63 0 -63 65z" />
<glyph unicode="u" horiz-adv-x="403" d="M-84 51q0 32 35 92l172 295h72l-209 -352q-23 -38 -23 -57q0 -11 3.5 -15t13.5 -4q23 0 64 38t75 79t79 99l9 12l117 200h71l-209 -352q-22 -37 -22 -57q0 -11 3 -15t13 -4q23 0 65.5 39t75.5 79.5t80 100.5q9 12 13 17h24q-4 -5 -28 -37.5t-36 -48.5t-37.5 -47.5 t-43 -49t-39.5 -38t-40.5 -30t-33.5 -9.5q-63 0 -63 65q0 21 20 62q-106 -127 -157 -127q-64 0 -64 65z" />
<glyph unicode="v" horiz-adv-x="350" d="M-55 88q0 43 35 107l143 243h72l-160 -274q-10 -17 -24.5 -56t-14.5 -53t9 -29.5t26 -15.5q15 0 33.5 13.5t42 41.5t42 52t47 63.5t42.5 57.5q-5 20 -5 24q0 32 22 76t47.5 74t37.5 30q16 0 16 -16t-24.5 -64t-49.5 -88l-24 -41q14 -24 43 -24q30 0 59 37h25 q-40 -58 -84 -58q-31 0 -53 29q-7 -10 -26.5 -39t-30.5 -45t-30 -42.5t-33.5 -41.5t-31.5 -31.5t-32 -24t-29 -7.5q-40 0 -65 33t-25 69z" />
<glyph unicode="w" horiz-adv-x="581" d="M-55 88q0 43 35 107l143 243h72l-160 -274q-10 -17 -24.5 -56t-14.5 -53t9 -29.5t26 -15.5q10 0 22.5 7t27 21t28 28.5t31 38t30 40.5t32 43.5t29.5 40.5l123 209h72l-160 -274q-10 -17 -24.5 -56t-14.5 -53t9 -29.5t26 -15.5q15 0 33.5 13.5t42 41.5t42 52t47 63.5 t42.5 57.5q-4 16 -4 24q0 32 22 76t47 74t37 30q8 0 12.5 -5t4.5 -11q0 -16 -25 -64t-49 -88l-25 -41q14 -24 43 -24q31 0 60 37h24q-40 -58 -84 -58q-31 0 -53 29q-7 -10 -26.5 -39t-30.5 -45t-30 -42.5t-33.5 -41.5t-31.5 -31.5t-32 -24t-29 -7.5q-40 0 -65 33t-25 69 q0 9 4 29q-94 -131 -145 -131q-40 0 -65 33t-25 69z" />
<glyph unicode="x" horiz-adv-x="477" d="M8 248q7 9 41.5 53.5t48.5 60t41 43t49.5 38t44.5 10.5q21 0 39.5 -17t18.5 -35q0 -47 -8 -141l161 172q8 8 15 0q7 -7 0 -14l-180 -193q-4 -41 -10.5 -86.5t-10.5 -71t-4 -30.5q0 -29 14 -29q15 0 35 15t44.5 43.5t44.5 55t48.5 65.5t44.5 59h25q-11 -14 -39 -55 t-50.5 -70.5t-51 -63.5t-54.5 -52.5t-47 -18.5q-28 0 -48.5 19.5t-20.5 47.5q0 24 8 94l-137 -145q-8 -8 -15 0q-7 7 0 14l158 166q2 18 7.5 58.5t9 64t6 54.5t2.5 53l-2 2q0 14 -15 14q-8 0 -17.5 -3.5t-20.5 -11.5t-20.5 -15t-22.5 -21.5t-21.5 -23t-23.5 -27t-21 -26 t-21.5 -27.5t-19.5 -25h-25z" />
<glyph unicode="y" d="M-338 -565q0 50 30 108t71 105t91.5 92.5t83.5 70.5t54 39q0 4 33 63t70 124t42 76q-106 -127 -157 -127q-64 0 -64 65q0 32 35 92l172 295h72l-209 -352q-23 -38 -23 -57q0 -11 3.5 -15t13.5 -4q23 0 64 38t75 79t79 99l9 12l117 200h65l-285 -516q48 33 105.5 95.5 t89.5 104.5t92 124h25q-48 -67 -73.5 -102t-70.5 -90t-91.5 -98.5t-100.5 -82.5q-38 -75 -75 -143t-93.5 -159.5t-109 -146.5t-89.5 -55q-23 0 -37 19.5t-14 46.5zM-309 -578q0 -11 6 -19.5t16 -8.5q19 0 57.5 62t98.5 174t94 167q-22 -16 -52.5 -42t-70 -67t-72 -83.5 t-55 -91.5t-22.5 -91z" />
<glyph unicode="z" horiz-adv-x="407" d="M-303 -555q0 50 35.5 112.5t102.5 133.5t141.5 137.5t173.5 146.5q10 30 10 41q0 17 -13 29t-30 12q-60 0 -86 -30q-9 -9 -19 -9q-12 0 -12 13q0 5 23 28l346 342q-39 -10 -72 -10q-23 0 -53 4t-43 4q-31 0 -71 -39.5t-97 -113.5h-25q8 10 42 53t50.5 60t48.5 45t64 39.5 t68 11.5q14 0 42 -3t50 -3q5 0 19 2t22 2q24 0 24 -13q0 -4 -9 -15t-19 -21l-9 -9l-319 -317q25 6 37 6q32 0 55 -18.5t29 -47.5q98 83 213 228h24q-90 -131 -235 -260q-6 -77 -89.5 -226t-186.5 -270t-158 -121q-36 0 -55 22.5t-19 53.5zM-270 -557q0 -23 10 -40t29 -17 q42 0 162 187t192 343q-89 -76 -148.5 -131t-121 -120.5t-92.5 -121t-31 -100.5z" />
<glyph unicode="{" horiz-adv-x="735" d="M266 309l15 41q87 14 136 28.5t93.5 45t73 78.5t57.5 129l43 123q1 2 9.5 26t10 28t10.5 25.5t13.5 28.5t15 25t20 27.5t23 24t29.5 26.5t35 24q101 58 244 58h24l-12 -31q-52 -2 -119 -20.5t-117 -55.5q-15 -10 -27.5 -22.5t-21.5 -22t-18 -24.5t-14 -23t-12 -25.5 t-9.5 -24t-9 -26.5t-8.5 -24l-43 -123q-28 -79 -60 -130.5t-92 -88.5q-32 -20 -70.5 -34t-91.5 -26.5t-55 -13.5q101 -25 145.5 -59.5t44.5 -100.5q0 -62 -32 -147l-39 -109q-35 -107 -35 -141q0 -64 63 -103q43 -28 138 -28l-13 -35h2q-109 11 -151 25q-111 35 -111 126 q0 13 2 27t7 32.5t7.5 27t11 32t9.5 27.5l49 141q29 85 29 121q0 54 -39 90q-53 36 -160 51z" />
<glyph unicode="|" horiz-adv-x="581" d="M469 -367v1411h35v-1411h-35z" />
<glyph unicode="}" horiz-adv-x="735" d="M-90 -391l12 35q96 0 158 28q33 14 58.5 29.5t45 35.5t32.5 36t26 44t19.5 45.5t19.5 53.5l38 109q28 78 59.5 129t78 85.5t99.5 54t136 36.5q-5 2 -47.5 13.5t-72 25.5t-46.5 34q-28 35 -28 82q0 56 30 138l43 122q2 8 8.5 25.5t9.5 28t7 25.5t6 28t2 25q0 36 -20 63.5 t-51 42.5t-63.5 22.5t-63.5 8.5l12 30h22q102 0 171 -34.5t69 -114.5q0 -17 -4.5 -38t-7.5 -31t-13.5 -40.5t-11.5 -33.5l-43 -123q-33 -88 -33 -146q0 -62 44 -88t153 -47l-14 -41q-124 -15 -197 -51q-30 -16 -54.5 -36.5t-37.5 -34.5t-28.5 -44.5t-19 -39t-16.5 -44.5 q-1 -2 -1.5 -3.5l-1 -3t-1.5 -3.5l-49 -141q-35 -98 -60 -137q-26 -41 -63 -70q-21 -16 -45.5 -29.5t-51.5 -22.5t-48 -15t-51 -10.5t-43 -6t-41.5 -4t-30.5 -2.5z" />
<glyph unicode="~" horiz-adv-x="452" d="M246 485q53 115 135 115q25 0 63.5 -24.5t61.5 -24.5q40 0 92 63h12q-22 -53 -57.5 -87.5t-77.5 -34.5q-25 0 -59.5 25.5t-67.5 25.5q-46 0 -88 -58h-14z" />
<glyph unicode="&#xa1;" horiz-adv-x="466" d="M78 2q0 7 43 84l553 973h16l-520 -1051q-14 -24 -66 -24q-26 0 -26 18zM682 1135q0 20 20 45.5t41 25.5q29 0 29 -32q0 -24 -19.5 -48t-41.5 -24q-13 0 -21 9.5t-8 23.5z" />
<glyph unicode="&#xa2;" horiz-adv-x="350" d="M111.5 338q-0.5 5 1.5 8l82 131q-28 14 -45 42t-17 63q0 66 33 134t81 117t101 81.5t94 37.5l76 127q1 3 6 3.5t8 -1.5q8 -4 3 -14l-68 -117q20 -4 31.5 -21.5t11.5 -41.5q0 -28 -20.5 -51t-40.5 -23q-10 0 -16.5 8t-6.5 19q0 13 9.5 22.5t23.5 9.5q5 0 10 -1.5t7 -2.5 l3 -2q6 15 6 29t-10.5 25.5t-23.5 11.5q-40 0 -103.5 -63t-112.5 -152t-49 -154q0 -30 17.5 -50.5t46.5 -20.5q12 0 23 1.5t21.5 5.5t17.5 6.5t18 10.5t16 11.5t18.5 14.5t18.5 15q3 2 6.5 0t4.5 -6t-3 -8q-5 -4 -21.5 -18.5t-26 -22t-26 -18t-34.5 -15t-37 -4.5 q-13 0 -33 4l-84 -135q-1 -3 -6 -3.5t-8 1.5q-3 1 -3.5 6z" />
<glyph unicode="&#xa3;" horiz-adv-x="948" d="M31 68q0 69 125 69q98 0 166 -8q107 110 174 283h-189q-10 0 -10 10t10 10h197q12 33 31 88.5t30.5 90t30.5 82t35.5 77.5t40.5 63t49.5 51.5t59.5 31t73 12.5q67 0 128.5 -52.5t61.5 -125.5q0 -107 -77.5 -194t-143.5 -87q-19 0 -35 17.5t-16 33.5q0 31 21.5 51.5 t50.5 20.5q26 0 37.5 -19t11.5 -43q15 8 32 22t42 40.5t41 66.5t16 86q0 47 -29 72t-65 25q-22 0 -43.5 -5t-43 -18.5t-39 -25t-39.5 -37t-36 -41t-37.5 -51t-35 -52t-36 -59.5t-33.5 -58.5t-36 -62.5h205q10 0 10 -10t-10 -10h-217q-118 -208 -187 -287q41 -5 192 -31 t230 -26q105 0 133 75q3 9 11 9q3 0 6.5 -4.5t3.5 -8.5q0 -6 -4 -18t-20.5 -36t-43.5 -46q-46 -37 -153 -37q-63 0 -192.5 43t-184.5 55q-97 -100 -195 -100q-39 0 -71.5 19t-32.5 49zM49 68q0 -21 25 -34.5t57 -13.5q76 0 168 86q-70 13 -139 13q-45 0 -78 -12t-33 -39z " />
<glyph unicode="&#xa8;" horiz-adv-x="452" d="M320.5 506.5q-3.5 14.5 5.5 34.5q9 21 25.5 35t33.5 14q14 0 18 -13.5t-6 -35.5q-24 -49 -59 -49q-14 0 -17.5 14.5zM490.5 506.5q-3.5 14.5 5.5 34.5q9 21 25.5 35t33.5 14q14 0 18 -13.5t-6 -35.5q-24 -49 -59 -49q-14 0 -17.5 14.5z" />
<glyph unicode="&#xad;" horiz-adv-x="579" d="M96 231h396l22 -41h-397z" />
<glyph unicode="&#xb4;" horiz-adv-x="452" d="M385 500q8 7 25.5 23t22.5 21t17.5 17t16 17.5t11 16.5t10.5 20.5t6.5 21.5t5.5 27q6 57 49 57q13 0 23 -10.5t10 -24.5q0 -55 -62 -109.5t-129 -84.5z" />
<glyph unicode="&#xb8;" horiz-adv-x="268" d="M-150 -326q-5 15 7 17q9 2 12 -10q12 -35 51 -35q64 0 122 58t58 118q0 41 -41 41q-40 0 -88 -29q-9 -7 -15.5 -1t1.5 15l104 146q6 10 14 4q7 -5 1 -12l-86 -123q48 18 69 18q40 0 61 -21t21 -55q0 -66 -69.5 -122t-151.5 -56q-29 0 -47 14t-23 33z" />
<glyph unicode="&#xbf;" horiz-adv-x="862" d="M78 260q0 63 40.5 122t87.5 96.5t135.5 80.5t129.5 59t124 45q6 3 10.5 4.5t8.5 2.5l185 319q18 29 47 29q33 0 33 -14q0 -12 -7 -19l-198 -332q-139 -29 -262 -90q-260 -131 -260 -325q0 -124 67 -175q65 -49 156 -49q128 0 248 70q76 44 122 107t46 131 q0 53 -38.5 83.5t-93.5 30.5q-57 0 -100.5 -23t-99.5 -69l-8 6q30 44 96 84.5t127 40.5q62 0 105.5 -41t43.5 -102t-38.5 -124t-99.5 -112t-142 -80.5t-162 -31.5q-129 0 -216 84.5t-87 191.5zM848 1083q0 20 20 46t41 26q29 0 29 -33q0 -24 -19 -47.5t-42 -23.5 q-13 0 -21 9t-8 23z" />
<glyph unicode="&#xc0;" horiz-adv-x="1460" d="M55 424q0 65 26 126.5t64 104t79 75.5t71 49t41 16q10 0 10 -7h2q0 -2 -27 -18.5t-65 -46t-76 -68t-65 -95.5t-27 -118q0 -38 8 -69q34 106 126.5 199.5t192 143.5t173.5 50q76 0 133 -48t57 -120q0 -39 -8 -70q54 7 96 7q13 0 86 -5q244 355 439 566q54 58 96 93.5 t53 35.5q8 0 8 -8q0 -5 -50 -111.5t-127.5 -283t-129.5 -318.5q149 0 211 22l6 -6q-22 -14 -87 -25t-138 -14q-86 -247 -86 -358q0 -131 86 -131q19 0 46 14t32 14q14 0 14 -12q0 -9 -31 -23t-61 -14q-74 0 -114 59t-40 140q0 137 64 311q-35 1 -164 15q-55 -95 -122.5 -180 t-147.5 -158t-173 -115.5t-184 -42.5q-113 0 -193.5 76t-80.5 188q0 15 4 47q-27 59 -27 113zM113 248q0 -94 70 -156.5t167 -62.5q135 0 284.5 130t297.5 343q-65 6 -133 6h-35q-41 -132 -174 -235.5t-283 -104.5q-57 0 -108 26t-86 70v-16zM117 315q29 -54 79 -84t107 -30 q116 0 251.5 92t178.5 213q-47 -3 -94 -12v12q30 7 100 18q9 30 9 66q0 62 -46 105.5t-110 43.5q-80 0 -181 -55t-187 -156t-107 -213zM418 1026q0 69 46.5 123.5t112 81t132.5 26.5q99 0 209.5 -27t209 -54t168.5 -27q46 0 101 22l4 -4q-75 -43 -141 -43q-76 0 -159 17 t-143 37.5t-135 37.5t-137 17q-91 0 -167.5 -63.5t-76.5 -141.5q0 -46 27 -83t69 -58t88 -32t89 -11q80 0 159.5 33t79.5 73q0 21 -10 31t-10 14q0 9 12 9q16 0 25.5 -13t9.5 -30q0 -63 -86 -103.5t-184 -40.5q-76 0 -140.5 22t-108.5 71t-44 116zM1006 526q15 -2 71 -8 t80 -8q54 142 143.5 304t151 259t61.5 105q0 4 -4 4q-7 0 -37.5 -29.5t-81.5 -88.5t-110.5 -135.5t-133 -183.5t-140.5 -219zM1386 1434q0 14 10 24t23 10q43 0 49 -57q2 -15 5.5 -27t6.5 -21.5t10.5 -20.5t11 -16.5t16 -17.5t17.5 -17t22.5 -21t25.5 -23l-6 -8 q-67 30 -129 85t-62 110z" />
<glyph unicode="&#xc1;" horiz-adv-x="1460" d="M55 424q0 65 26 126.5t64 104t79 75.5t71 49t41 16q10 0 10 -7h2q0 -2 -27 -18.5t-65 -46t-76 -68t-65 -95.5t-27 -118q0 -38 8 -69q34 106 126.5 199.5t192 143.5t173.5 50q76 0 133 -48t57 -120q0 -39 -8 -70q54 7 96 7q13 0 86 -5q244 355 439 566q54 58 96 93.5 t53 35.5q8 0 8 -8q0 -5 -50 -111.5t-127.5 -283t-129.5 -318.5q149 0 211 22l6 -6q-22 -14 -87 -25t-138 -14q-86 -247 -86 -358q0 -131 86 -131q19 0 46 14t32 14q14 0 14 -12q0 -9 -31 -23t-61 -14q-74 0 -114 59t-40 140q0 137 64 311q-35 1 -164 15q-55 -95 -122.5 -180 t-147.5 -158t-173 -115.5t-184 -42.5q-113 0 -193.5 76t-80.5 188q0 15 4 47q-27 59 -27 113zM113 248q0 -94 70 -156.5t167 -62.5q135 0 284.5 130t297.5 343q-65 6 -133 6h-35q-41 -132 -174 -235.5t-283 -104.5q-57 0 -108 26t-86 70v-16zM117 315q29 -54 79 -84t107 -30 q116 0 251.5 92t178.5 213q-47 -3 -94 -12v12q30 7 100 18q9 30 9 66q0 62 -46 105.5t-110 43.5q-80 0 -181 -55t-187 -156t-107 -213zM418 1026q0 69 46.5 123.5t112 81t132.5 26.5q99 0 209.5 -27t209 -54t168.5 -27q46 0 101 22l4 -4q-75 -43 -141 -43q-76 0 -159 17 t-143 37.5t-135 37.5t-137 17q-91 0 -167.5 -63.5t-76.5 -141.5q0 -46 27 -83t69 -58t88 -32t89 -11q80 0 159.5 33t79.5 73q0 21 -10 31t-10 14q0 9 12 9q16 0 25.5 -13t9.5 -30q0 -63 -86 -103.5t-184 -40.5q-76 0 -140.5 22t-108.5 71t-44 116zM1006 526q15 -2 71 -8 t80 -8q54 142 143.5 304t151 259t61.5 105q0 4 -4 4q-7 0 -37.5 -29.5t-81.5 -88.5t-110.5 -135.5t-133 -183.5t-140.5 -219zM1485 1280q6 5 25 22.5t23 21.5l17 17t16 18t11 16.5t10.5 20t6 21t5.5 27.5q6 57 50 57q13 0 22.5 -10.5t9.5 -24.5q0 -55 -61.5 -109.5 t-128.5 -84.5z" />
<glyph unicode="&#xc2;" horiz-adv-x="1460" d="M55 424q0 65 26 126.5t64 104t79 75.5t71 49t41 16q10 0 10 -7h2q0 -2 -27 -18.5t-65 -46t-76 -68t-65 -95.5t-27 -118q0 -38 8 -69q34 106 126.5 199.5t192 143.5t173.5 50q76 0 133 -48t57 -120q0 -39 -8 -70q54 7 96 7q13 0 86 -5q244 355 439 566q54 58 96 93.5 t53 35.5q8 0 8 -8q0 -5 -50 -111.5t-127.5 -283t-129.5 -318.5q149 0 211 22l6 -6q-22 -14 -87 -25t-138 -14q-86 -247 -86 -358q0 -131 86 -131q19 0 46 14t32 14q14 0 14 -12q0 -9 -31 -23t-61 -14q-74 0 -114 59t-40 140q0 137 64 311q-35 1 -164 15q-55 -95 -122.5 -180 t-147.5 -158t-173 -115.5t-184 -42.5q-113 0 -193.5 76t-80.5 188q0 15 4 47q-27 59 -27 113zM113 248q0 -94 70 -156.5t167 -62.5q135 0 284.5 130t297.5 343q-65 6 -133 6h-35q-41 -132 -174 -235.5t-283 -104.5q-57 0 -108 26t-86 70v-16zM117 315q29 -54 79 -84t107 -30 q116 0 251.5 92t178.5 213q-47 -3 -94 -12v12q30 7 100 18q9 30 9 66q0 62 -46 105.5t-110 43.5q-80 0 -181 -55t-187 -156t-107 -213zM418 1026q0 69 46.5 123.5t112 81t132.5 26.5q99 0 209.5 -27t209 -54t168.5 -27q46 0 101 22l4 -4q-75 -43 -141 -43q-76 0 -159 17 t-143 37.5t-135 37.5t-137 17q-91 0 -167.5 -63.5t-76.5 -141.5q0 -46 27 -83t69 -58t88 -32t89 -11q80 0 159.5 33t79.5 73q0 21 -10 31t-10 14q0 9 12 9q16 0 25.5 -13t9.5 -30q0 -63 -86 -103.5t-184 -40.5q-76 0 -140.5 22t-108.5 71t-44 116zM1006 526q15 -2 71 -8 t80 -8q54 142 143.5 304t151 259t61.5 105q0 4 -4 4q-7 0 -37.5 -29.5t-81.5 -88.5t-110.5 -135.5t-133 -183.5t-140.5 -219zM1372 1223v8q133 99 209 211h16q40 -141 105 -225h-16q-36 25 -59 56.5t-48 78.5q-126 -106 -207 -129z" />
<glyph unicode="&#xc3;" horiz-adv-x="1460" d="M55 424q0 65 26 126.5t64 104t79 75.5t71 49t41 16q10 0 10 -7h2q0 -2 -27 -18.5t-65 -46t-76 -68t-65 -95.5t-27 -118q0 -38 8 -69q34 106 126.5 199.5t192 143.5t173.5 50q76 0 133 -48t57 -120q0 -39 -8 -70q54 7 96 7q13 0 86 -5q244 355 439 566q54 58 96 93.5 t53 35.5q8 0 8 -8q0 -5 -50 -111.5t-127.5 -283t-129.5 -318.5q149 0 211 22l6 -6q-22 -14 -87 -25t-138 -14q-86 -247 -86 -358q0 -131 86 -131q19 0 46 14t32 14q14 0 14 -12q0 -9 -31 -23t-61 -14q-74 0 -114 59t-40 140q0 137 64 311q-35 1 -164 15q-55 -95 -122.5 -180 t-147.5 -158t-173 -115.5t-184 -42.5q-113 0 -193.5 76t-80.5 188q0 15 4 47q-27 59 -27 113zM113 248q0 -94 70 -156.5t167 -62.5q135 0 284.5 130t297.5 343q-65 6 -133 6h-35q-41 -132 -174 -235.5t-283 -104.5q-57 0 -108 26t-86 70v-16zM117 315q29 -54 79 -84t107 -30 q116 0 251.5 92t178.5 213q-47 -3 -94 -12v12q30 7 100 18q9 30 9 66q0 62 -46 105.5t-110 43.5q-80 0 -181 -55t-187 -156t-107 -213zM418 1026q0 69 46.5 123.5t112 81t132.5 26.5q99 0 209.5 -27t209 -54t168.5 -27q46 0 101 22l4 -4q-75 -43 -141 -43q-76 0 -159 17 t-143 37.5t-135 37.5t-137 17q-91 0 -167.5 -63.5t-76.5 -141.5q0 -46 27 -83t69 -58t88 -32t89 -11q80 0 159.5 33t79.5 73q0 21 -10 31t-10 14q0 9 12 9q16 0 25.5 -13t9.5 -30q0 -63 -86 -103.5t-184 -40.5q-76 0 -140.5 22t-108.5 71t-44 116zM1006 526q15 -2 71 -8 t80 -8q54 142 143.5 304t151 259t61.5 105q0 4 -4 4q-7 0 -37.5 -29.5t-81.5 -88.5t-110.5 -135.5t-133 -183.5t-140.5 -219zM1327 1251q53 115 135 115q25 0 63.5 -24.5t61.5 -24.5q40 0 92 63h13q-22 -53 -58 -88t-78 -35q-25 0 -59 26t-67 26q-47 0 -89 -58h-14z" />
<glyph unicode="&#xc4;" horiz-adv-x="1460" d="M55 424q0 65 26 126.5t64 104t79 75.5t71 49t41 16q10 0 10 -7h2q0 -2 -27 -18.5t-65 -46t-76 -68t-65 -95.5t-27 -118q0 -38 8 -69q34 106 126.5 199.5t192 143.5t173.5 50q76 0 133 -48t57 -120q0 -39 -8 -70q54 7 96 7q13 0 86 -5q244 355 439 566q54 58 96 93.5 t53 35.5q8 0 8 -8q0 -5 -50 -111.5t-127.5 -283t-129.5 -318.5q149 0 211 22l6 -6q-22 -14 -87 -25t-138 -14q-86 -247 -86 -358q0 -131 86 -131q19 0 46 14t32 14q14 0 14 -12q0 -9 -31 -23t-61 -14q-74 0 -114 59t-40 140q0 137 64 311q-35 1 -164 15q-55 -95 -122.5 -180 t-147.5 -158t-173 -115.5t-184 -42.5q-113 0 -193.5 76t-80.5 188q0 15 4 47q-27 59 -27 113zM113 248q0 -94 70 -156.5t167 -62.5q135 0 284.5 130t297.5 343q-65 6 -133 6h-35q-41 -132 -174 -235.5t-283 -104.5q-57 0 -108 26t-86 70v-16zM117 315q29 -54 79 -84t107 -30 q116 0 251.5 92t178.5 213q-47 -3 -94 -12v12q30 7 100 18q9 30 9 66q0 62 -46 105.5t-110 43.5q-80 0 -181 -55t-187 -156t-107 -213zM418 1026q0 69 46.5 123.5t112 81t132.5 26.5q99 0 209.5 -27t209 -54t168.5 -27q46 0 101 22l4 -4q-75 -43 -141 -43q-76 0 -159 17 t-143 37.5t-135 37.5t-137 17q-91 0 -167.5 -63.5t-76.5 -141.5q0 -46 27 -83t69 -58t88 -32t89 -11q80 0 159.5 33t79.5 73q0 21 -10 31t-10 14q0 9 12 9q16 0 25.5 -13t9.5 -30q0 -63 -86 -103.5t-184 -40.5q-76 0 -140.5 22t-108.5 71t-44 116zM1006 526q15 -2 71 -8 t80 -8q54 142 143.5 304t151 259t61.5 105q0 4 -4 4q-7 0 -37.5 -29.5t-81.5 -88.5t-110.5 -135.5t-133 -183.5t-140.5 -219zM1426.5 1272q-3.5 15 5.5 35q9 21 25.5 35t33.5 14q14 0 18 -13.5t-6 -35.5q-24 -50 -59 -50q-14 0 -17.5 15zM1596.5 1272q-3.5 15 5.5 35 q9 21 25.5 35t33.5 14q14 0 18 -13.5t-6 -35.5q-24 -50 -59 -50q-14 0 -17.5 15z" />
<glyph unicode="&#xc6;" horiz-adv-x="2080" d="M55 424q0 65 26 126.5t64 104t79 75.5t71 49t41 16q10 0 10 -7h2q0 -2 -27 -18.5t-65 -46t-76 -68t-65 -95.5t-27 -118q0 -38 8 -69q34 106 126.5 199.5t192 143.5t173.5 50q76 0 133 -48t57 -120q0 -39 -8 -70q54 7 96 7q13 0 86 -5q244 355 439 566q54 58 96 93.5 t53 35.5q8 0 8 -8q0 -5 -37 -84t-101 -220.5t-114 -263.5q81 72 207 129q118 54 226 80q-21 32 -21 66q0 69 56.5 140t147.5 117t185 46q64 0 111 -44t47 -106t-36.5 -124t-103.5 -115.5t-175 -87t-238 -33.5q-103 0 -201 28q-278 -157 -278 -450q0 -105 90 -184.5 t207 -79.5q95 0 181.5 48.5t141.5 135t55 186.5q0 89 -58.5 152t-145.5 63q-63 0 -131.5 -31t-119 -92.5t-50.5 -134.5q0 -45 34.5 -75.5t81.5 -30.5q30 0 60.5 14.5t49 32.5t33 32.5t17.5 14.5q8 0 8 -8q0 -27 -55 -69t-109 -42q-60 0 -104.5 37t-44.5 94q0 114 95 199.5 t220 85.5q102 0 175 -71.5t73 -172.5q0 -160 -126 -279.5t-296 -119.5q-116 0 -214 57t-136 152q-8 -44 -8 -86q0 -131 86 -131q19 0 46 14t32 14q14 0 14 -12q0 -9 -31 -23t-61 -14q-74 0 -114 59t-40 140q0 137 64 311q-35 1 -164 15q-55 -95 -122.5 -180t-147.5 -158 t-173 -115.5t-184 -42.5q-113 0 -193.5 76t-80.5 188q0 15 4 47q-27 59 -27 113zM113 248q0 -94 70 -156.5t167 -62.5q135 0 284.5 130t297.5 343q-65 6 -133 6h-35q-41 -132 -174 -235.5t-283 -104.5q-57 0 -108 26t-86 70v-16zM117 315q29 -54 79 -84t107 -30 q116 0 251.5 92t178.5 213q-47 -3 -94 -12v12q30 7 100 18q9 30 9 66q0 62 -46 105.5t-110 43.5q-80 0 -181 -55t-187 -156t-107 -213zM418 1026q0 69 46.5 123.5t112 81t132.5 26.5q99 0 209.5 -27t209 -54t168.5 -27q46 0 101 22l4 -4q-75 -43 -141 -43q-76 0 -159 17 t-143 37.5t-135 37.5t-137 17q-91 0 -167.5 -63.5t-76.5 -141.5q0 -46 27 -83t69 -58t88 -32t89 -11q80 0 159.5 33t79.5 73q0 21 -10 31t-10 14q0 9 12 9q16 0 25.5 -13t9.5 -30q0 -63 -86 -103.5t-184 -40.5q-76 0 -140.5 22t-108.5 71t-44 116zM1006 526q15 -2 71 -8 t80 -8q54 142 143.5 304t151 259t61.5 105q0 4 -4 4q-7 0 -37.5 -29.5t-81.5 -88.5t-110.5 -135.5t-133 -183.5t-140.5 -219zM1544 768q80 -18 166 -18q132 0 251 42t195 120t76 173q0 46 -36.5 83.5t-86.5 37.5q-60 0 -138 -42t-136.5 -111.5t-58.5 -137.5q0 -23 10 -43 q72 17 88 17q76 0 76 -29q0 -23 -33 -36t-72 -13q-63 0 -100 29q-103 -25 -201 -72zM1806 854q21 -12 64 -12t43 14q0 8 -33 8q-20 0 -74 -10z" />
<glyph unicode="&#xc7;" horiz-adv-x="1048" d="M82 322q0 272 268 524q-102 79 -102 198q0 65 27 123.5t67 100.5l6 -8q-76 -90 -76 -213q0 -109 99 -181q161 145 357 237.5t314 92.5q59 0 102.5 -25.5t43.5 -74.5q0 -67 -64 -130.5t-155.5 -106.5t-189.5 -69t-169 -26q-109 0 -196 43q-254 -266 -254 -528 q0 -102 57 -174t160 -72q97 0 190 46.5t157.5 117t104 155.5t39.5 162q0 68 -44.5 115t-116.5 47q-80 0 -170.5 -48.5t-157 -137.5t-66.5 -189q0 -45 32.5 -75.5t78.5 -30.5q18 0 35.5 3t34.5 10t30 13t29.5 19t25.5 20t25 23l21.5 21.5t21 22.5t17.5 19l10 -4 q-118 -180 -256 -180q-58 0 -98.5 40t-40.5 99q0 101 69 197t166 151.5t184 55.5t143 -58.5t56 -138.5q0 -74 -41.5 -162t-109.5 -165t-167 -129t-202 -52h-6l-82 -119q2 1 13 5.5t17.5 6.5t17.5 4.5t21 2.5q40 0 61 -21t21 -55q0 -66 -69.5 -122t-151.5 -56q-29 0 -46.5 14 t-22.5 33q-3 9 1 14t9.5 2.5t7.5 -10.5q12 -35 51 -35q63 0 121.5 58t58.5 118q0 41 -41 41t-88 -28q-9 -7 -15.5 -1t1.5 15l96 133q-118 10 -194 104t-76 218zM434 829q79 -36 182 -36q108 0 238.5 46.5t223.5 120t93 140.5q0 39 -35.5 57.5t-86.5 18.5q-99 0 -281 -98.5 t-334 -248.5z" />
<glyph unicode="&#xc8;" horiz-adv-x="997" d="M47 311q0 278 326 447q-132 47 -214.5 135t-82.5 190q0 18 6.5 38t11.5 20q4 0 4 -6q0 -2 -3 -24.5t-3 -35.5q0 -91 90.5 -174t231.5 -123q116 53 225 80q-21 32 -21 66q0 69 56.5 140t148 117t185.5 46q64 0 110.5 -44t46.5 -106t-36.5 -124t-103.5 -115.5t-175 -87 t-238 -33.5q-102 0 -200 28q-279 -158 -279 -450q0 -105 90 -184.5t207 -79.5q95 0 182 48.5t142 135t55 186.5q0 89 -59 152t-146 63q-63 0 -131.5 -31t-119 -92.5t-50.5 -134.5q0 -45 35 -75.5t82 -30.5q30 0 60.5 14.5t49 32.5t33 32.5t17.5 14.5q8 0 8 -8q0 -27 -55 -69 t-109 -42q-61 0 -105.5 37t-44.5 94q0 114 95.5 199.5t220.5 85.5q102 0 175 -71.5t73 -172.5q0 -160 -126 -279.5t-296 -119.5q-147 0 -258 87.5t-111 223.5zM455 768q79 -18 166 -18q132 0 251 42t195 120t76 173q0 46 -36.5 83.5t-86.5 37.5q-60 0 -138 -42t-137 -112 t-59 -137q0 -23 10 -43q72 17 88 17q76 0 76 -29q0 -23 -33 -36t-71 -13q-64 0 -101 29q-101 -24 -200 -72zM717 854q21 -12 63 -12q43 0 43 14q0 8 -32 8q-20 0 -74 -10zM987 1438q0 14 10 24.5t23 10.5q43 0 49 -58q2 -15 5.5 -27t6.5 -21.5t10.5 -20.5t11 -16.5t16 -17.5 t17.5 -17t22.5 -21t25.5 -23l-6 -8q-67 30 -129 85t-62 110z" />
<glyph unicode="&#xc9;" horiz-adv-x="997" d="M47 311q0 278 326 447q-132 47 -214.5 135t-82.5 190q0 18 6.5 38t11.5 20q4 0 4 -6q0 -2 -3 -24.5t-3 -35.5q0 -91 90.5 -174t231.5 -123q116 53 225 80q-21 32 -21 66q0 69 56.5 140t148 117t185.5 46q64 0 110.5 -44t46.5 -106t-36.5 -124t-103.5 -115.5t-175 -87 t-238 -33.5q-102 0 -200 28q-279 -158 -279 -450q0 -105 90 -184.5t207 -79.5q95 0 182 48.5t142 135t55 186.5q0 89 -59 152t-146 63q-63 0 -131.5 -31t-119 -92.5t-50.5 -134.5q0 -45 35 -75.5t82 -30.5q30 0 60.5 14.5t49 32.5t33 32.5t17.5 14.5q8 0 8 -8q0 -27 -55 -69 t-109 -42q-61 0 -105.5 37t-44.5 94q0 114 95.5 199.5t220.5 85.5q102 0 175 -71.5t73 -172.5q0 -160 -126 -279.5t-296 -119.5q-147 0 -258 87.5t-111 223.5zM455 768q79 -18 166 -18q132 0 251 42t195 120t76 173q0 46 -36.5 83.5t-86.5 37.5q-60 0 -138 -42t-137 -112 t-59 -137q0 -23 10 -43q72 17 88 17q76 0 76 -29q0 -23 -33 -36t-71 -13q-64 0 -101 29q-101 -24 -200 -72zM717 854q21 -12 63 -12q43 0 43 14q0 8 -32 8q-20 0 -74 -10zM1055 1268q6 5 25 22.5t23 21.5l17 17t16 18t11 16.5t10.5 20t6 21t5.5 27.5q6 57 50 57 q13 0 22.5 -10.5t9.5 -24.5q0 -55 -61.5 -109.5t-128.5 -84.5z" />
<glyph unicode="&#xca;" horiz-adv-x="997" d="M47 311q0 278 326 447q-132 47 -214.5 135t-82.5 190q0 18 6.5 38t11.5 20q4 0 4 -6q0 -2 -3 -24.5t-3 -35.5q0 -91 90.5 -174t231.5 -123q116 53 225 80q-21 32 -21 66q0 69 56.5 140t148 117t185.5 46q64 0 110.5 -44t46.5 -106t-36.5 -124t-103.5 -115.5t-175 -87 t-238 -33.5q-102 0 -200 28q-279 -158 -279 -450q0 -105 90 -184.5t207 -79.5q95 0 182 48.5t142 135t55 186.5q0 89 -59 152t-146 63q-63 0 -131.5 -31t-119 -92.5t-50.5 -134.5q0 -45 35 -75.5t82 -30.5q30 0 60.5 14.5t49 32.5t33 32.5t17.5 14.5q8 0 8 -8q0 -27 -55 -69 t-109 -42q-61 0 -105.5 37t-44.5 94q0 114 95.5 199.5t220.5 85.5q102 0 175 -71.5t73 -172.5q0 -160 -126 -279.5t-296 -119.5q-147 0 -258 87.5t-111 223.5zM455 768q79 -18 166 -18q132 0 251 42t195 120t76 173q0 46 -36.5 83.5t-86.5 37.5q-60 0 -138 -42t-137 -112 t-59 -137q0 -23 10 -43q72 17 88 17q76 0 76 -29q0 -23 -33 -36t-71 -13q-64 0 -101 29q-101 -24 -200 -72zM717 854q21 -12 63 -12q43 0 43 14q0 8 -32 8q-20 0 -74 -10zM862 1227v8q133 99 209 211h16q40 -141 105 -225h-16q-36 25 -59 56.5t-48 78.5q-126 -106 -207 -129 z" />
<glyph unicode="&#xcb;" horiz-adv-x="997" d="M47 311q0 278 326 447q-132 47 -214.5 135t-82.5 190q0 18 6.5 38t11.5 20q4 0 4 -6q0 -2 -3 -24.5t-3 -35.5q0 -91 90.5 -174t231.5 -123q116 53 225 80q-21 32 -21 66q0 69 56.5 140t148 117t185.5 46q64 0 110.5 -44t46.5 -106t-36.5 -124t-103.5 -115.5t-175 -87 t-238 -33.5q-102 0 -200 28q-279 -158 -279 -450q0 -105 90 -184.5t207 -79.5q95 0 182 48.5t142 135t55 186.5q0 89 -59 152t-146 63q-63 0 -131.5 -31t-119 -92.5t-50.5 -134.5q0 -45 35 -75.5t82 -30.5q30 0 60.5 14.5t49 32.5t33 32.5t17.5 14.5q8 0 8 -8q0 -27 -55 -69 t-109 -42q-61 0 -105.5 37t-44.5 94q0 114 95.5 199.5t220.5 85.5q102 0 175 -71.5t73 -172.5q0 -160 -126 -279.5t-296 -119.5q-147 0 -258 87.5t-111 223.5zM455 768q79 -18 166 -18q132 0 251 42t195 120t76 173q0 46 -36.5 83.5t-86.5 37.5q-60 0 -138 -42t-137 -112 t-59 -137q0 -23 10 -43q72 17 88 17q76 0 76 -29q0 -23 -33 -36t-71 -13q-64 0 -101 29q-101 -24 -200 -72zM717 854q21 -12 63 -12q43 0 43 14q0 8 -32 8q-20 0 -74 -10zM924.5 1268q-3.5 15 5.5 35q9 21 25.5 35t33.5 14q14 0 18 -13.5t-6 -35.5q-24 -50 -59 -50 q-14 0 -17.5 15zM1094.5 1268q-3.5 15 5.5 35q9 21 25.5 35t33.5 14q14 0 18 -13.5t-6 -35.5q-24 -50 -59 -50q-14 0 -17.5 15z" />
<glyph unicode="&#xcc;" horiz-adv-x="1179" d="M33 297q0 71 29 135.5t77 112t109.5 83t128.5 53t131 17.5q96 0 171 -51t75 -139t-67.5 -171.5t-160 -131t-172.5 -47.5q-62 0 -107.5 42.5t-45.5 104.5q0 43 22 81.5t53.5 63t62.5 43.5t53 27l22 8q15 4 18 -10q4 -15 -10 -18q-2 0 -21 -8t-48 -25.5t-56.5 -39.5 t-47.5 -55t-20 -67q0 -51 36 -85t89 -34q54 0 119 28t121 72t93.5 104t37.5 118q0 72 -65.5 117t-151.5 45q-104 0 -206 -46t-171.5 -134t-69.5 -193q0 -117 85 -193.5t206 -76.5q87 0 176.5 41.5t166 111t139.5 146.5t114 161q56 92 100 158.5t108.5 160.5t113.5 167 q63 93 205 258q-58 -17 -111 -27q-36 -6 -138.5 -12t-183.5 -6q-100 0 -192 -37.5t-151.5 -107t-59.5 -154.5q0 -73 55.5 -122.5t132.5 -49.5q36 0 70 12.5t58 29.5t42.5 34.5t27.5 30.5l9 12q8 12 19 4q9 -6 4 -17l-4 -5q-4 -6 -10.5 -13.5t-16 -17.5t-21.5 -20.5 t-26.5 -21.5t-32 -20t-36.5 -16.5t-41.5 -12t-45.5 -4.5q-89 0 -153 57t-64 144q0 98 63.5 176t169 120t232.5 42l186 -2q124 7 162 16q17 4 40 10.5t37 10.5t17 4l9 -4q10 0 10 -11q0 -1 -27 -28q-102 -117 -170 -215q-72 -105 -172 -312t-174 -315q-269 -385 -637 -385 q-131 0 -225 85.5t-94 213.5zM1221 1473q0 14 9.5 24t22.5 10q44 0 50 -57q2 -15 5.5 -27.5t6 -21t10.5 -20t11 -16.5t16 -18l17 -17t23 -21.5t25 -22.5l-6 -8q-66 29 -128 84.5t-62 110.5z" />
<glyph unicode="&#xcd;" horiz-adv-x="1179" d="M33 297q0 71 29 135.5t77 112t109.5 83t128.5 53t131 17.5q96 0 171 -51t75 -139t-67.5 -171.5t-160 -131t-172.5 -47.5q-62 0 -107.5 42.5t-45.5 104.5q0 43 22 81.5t53.5 63t62.5 43.5t53 27l22 8q15 4 18 -10q4 -15 -10 -18q-2 0 -21 -8t-48 -25.5t-56.5 -39.5 t-47.5 -55t-20 -67q0 -51 36 -85t89 -34q54 0 119 28t121 72t93.5 104t37.5 118q0 72 -65.5 117t-151.5 45q-104 0 -206 -46t-171.5 -134t-69.5 -193q0 -117 85 -193.5t206 -76.5q87 0 176.5 41.5t166 111t139.5 146.5t114 161q56 92 100 158.5t108.5 160.5t113.5 167 q63 93 205 258q-58 -17 -111 -27q-36 -6 -138.5 -12t-183.5 -6q-100 0 -192 -37.5t-151.5 -107t-59.5 -154.5q0 -73 55.5 -122.5t132.5 -49.5q36 0 70 12.5t58 29.5t42.5 34.5t27.5 30.5l9 12q8 12 19 4q9 -6 4 -17l-4 -5q-4 -6 -10.5 -13.5t-16 -17.5t-21.5 -20.5 t-26.5 -21.5t-32 -20t-36.5 -16.5t-41.5 -12t-45.5 -4.5q-89 0 -153 57t-64 144q0 98 63.5 176t169 120t232.5 42l186 -2q124 7 162 16q17 4 40 10.5t37 10.5t17 4l9 -4q10 0 10 -11q0 -1 -27 -28q-102 -117 -170 -215q-72 -105 -172 -312t-174 -315q-269 -385 -637 -385 q-131 0 -225 85.5t-94 213.5zM1303 1300q6 5 25 22.5t23 21.5l17 17t16 18t11 16.5t10.5 20t6 21t5.5 27.5q6 58 49 58q13 0 23 -10.5t10 -24.5q0 -55 -62 -110.5t-128 -84.5z" />
<glyph unicode="&#xce;" horiz-adv-x="1179" d="M33 297q0 71 29 135.5t77 112t109.5 83t128.5 53t131 17.5q96 0 171 -51t75 -139t-67.5 -171.5t-160 -131t-172.5 -47.5q-62 0 -107.5 42.5t-45.5 104.5q0 43 22 81.5t53.5 63t62.5 43.5t53 27l22 8q15 4 18 -10q4 -15 -10 -18q-2 0 -21 -8t-48 -25.5t-56.5 -39.5 t-47.5 -55t-20 -67q0 -51 36 -85t89 -34q54 0 119 28t121 72t93.5 104t37.5 118q0 72 -65.5 117t-151.5 45q-104 0 -206 -46t-171.5 -134t-69.5 -193q0 -117 85 -193.5t206 -76.5q87 0 176.5 41.5t166 111t139.5 146.5t114 161q56 92 100 158.5t108.5 160.5t113.5 167 q63 93 205 258q-58 -17 -111 -27q-36 -6 -138.5 -12t-183.5 -6q-100 0 -192 -37.5t-151.5 -107t-59.5 -154.5q0 -73 55.5 -122.5t132.5 -49.5q36 0 70 12.5t58 29.5t42.5 34.5t27.5 30.5l9 12q8 12 19 4q9 -6 4 -17l-4 -5q-4 -6 -10.5 -13.5t-16 -17.5t-21.5 -20.5 t-26.5 -21.5t-32 -20t-36.5 -16.5t-41.5 -12t-45.5 -4.5q-89 0 -153 57t-64 144q0 98 63.5 176t169 120t232.5 42l186 -2q124 7 162 16q17 4 40 10.5t37 10.5t17 4l9 -4q10 0 10 -11q0 -1 -27 -28q-102 -117 -170 -215q-72 -105 -172 -312t-174 -315q-269 -385 -637 -385 q-131 0 -225 85.5t-94 213.5zM1249 1270v8q133 99 209 211h17q41 -143 104 -225h-16q-36 25 -59 56.5t-48 78.5q-126 -106 -207 -129z" />
<glyph unicode="&#xcf;" horiz-adv-x="1179" d="M33 297q0 71 29 135.5t77 112t109.5 83t128.5 53t131 17.5q96 0 171 -51t75 -139t-67.5 -171.5t-160 -131t-172.5 -47.5q-62 0 -107.5 42.5t-45.5 104.5q0 43 22 81.5t53.5 63t62.5 43.5t53 27l22 8q15 4 18 -10q4 -15 -10 -18q-2 0 -21 -8t-48 -25.5t-56.5 -39.5 t-47.5 -55t-20 -67q0 -51 36 -85t89 -34q54 0 119 28t121 72t93.5 104t37.5 118q0 72 -65.5 117t-151.5 45q-104 0 -206 -46t-171.5 -134t-69.5 -193q0 -117 85 -193.5t206 -76.5q87 0 176.5 41.5t166 111t139.5 146.5t114 161q56 92 100 158.5t108.5 160.5t113.5 167 q63 93 205 258q-58 -17 -111 -27q-36 -6 -138.5 -12t-183.5 -6q-100 0 -192 -37.5t-151.5 -107t-59.5 -154.5q0 -73 55.5 -122.5t132.5 -49.5q36 0 70 12.5t58 29.5t42.5 34.5t27.5 30.5l9 12q8 12 19 4q9 -6 4 -17l-4 -5q-4 -6 -10.5 -13.5t-16 -17.5t-21.5 -20.5 t-26.5 -21.5t-32 -20t-36.5 -16.5t-41.5 -12t-45.5 -4.5q-89 0 -153 57t-64 144q0 98 63.5 176t169 120t232.5 42l186 -2q124 7 162 16q17 4 40 10.5t37 10.5t17 4l9 -4q10 0 10 -11q0 -1 -27 -28q-102 -117 -170 -215q-72 -105 -172 -312t-174 -315q-269 -385 -637 -385 q-131 0 -225 85.5t-94 213.5zM1248 1321.5q-4 14.5 5 34.5q9 21 26 35t34 14q14 0 18 -13.5t-6 -35.5q-24 -49 -59 -49q-14 0 -18 14.5zM1418 1321.5q-4 14.5 5 34.5q9 21 26 35t34 14q14 0 18 -13.5t-6 -35.5q-24 -49 -59 -49q-14 0 -18 14.5z" />
<glyph unicode="&#xd1;" horiz-adv-x="1679" d="M29 365q0 79 35 157t85 133t103 98.5t90 65t45 21.5q10 0 10 -9t-22 -24q-320 -208 -320 -440q0 -55 23 -109q46 144 152.5 267.5t233 193t238.5 69.5q89 0 157.5 -55t68.5 -139q0 -88 -51.5 -182.5t-133.5 -170t-195 -124.5t-226 -49q-71 0 -132.5 31.5t-101.5 86.5 q-10 -58 -10 -104q0 -143 73.5 -239.5t196.5 -96.5q134 0 272.5 126.5t303.5 371.5q71 105 179 278.5t192 309.5t195.5 296t209.5 275l12 -10q-75 -90 -108 -240q-43 -200 -43 -602l165 215q22 189 88 392.5t149.5 340.5t150.5 137q30 0 48.5 -21.5t18.5 -53.5 q0 -79 -84 -254q-116 -244 -348 -553l-20 -117h-11q0 24 4 82l-161 -213q-5 -100 -34.5 -215t-78 -201t-98.5 -86q-29 0 -49.5 20t-20.5 48q0 60 50 149t145 217q-5 154 -5 336q0 84 24.5 180t52 161.5t75.5 166.5q-78 -104 -162 -240t-151.5 -260.5t-145 -261t-145 -250.5 t-147 -219t-156 -178t-168.5 -116.5t-187 -43.5q-134 0 -223.5 107t-89.5 250q0 63 21 149q-39 67 -39 146zM96 221q34 -57 91.5 -90t125.5 -33q108 0 215 44t186.5 113.5t129 160t49.5 180.5q0 69 -56.5 114.5t-129.5 45.5q-111 0 -237.5 -70.5t-231.5 -196t-142 -268.5z M1311 78q0 -20 11 -34.5t32 -14.5q33 0 59.5 58t39.5 137.5t13 156.5q-155 -216 -155 -303zM1757 805q160 213 301 487q53 104 79 168t26 105q0 16 -15.5 35.5t-29.5 19.5q-30 0 -66.5 -38.5t-71 -101t-60.5 -120t-50 -117.5q-60 -152 -113 -438zM1896 1657q53 115 136 115 q25 0 63.5 -25t61.5 -25q39 0 92 64h12q-22 -53 -57.5 -88t-77.5 -35q-25 0 -59.5 25.5t-67.5 25.5q-47 0 -88 -57h-15z" />
<glyph unicode="&#xd2;" horiz-adv-x="1097" d="M90 336q0 103 35 208.5t93.5 198t138 179.5t165 157t176.5 127q190 120 344 146l7 -15q-130 -24 -281 -121.5t-272 -244.5q-334 -403 -334 -703h2q0 -114 59.5 -177.5t155.5 -63.5q191 0 459 303q168 192 278.5 388t110.5 333q0 78 -43 131t-121 53q-79 0 -191.5 -53 t-214.5 -140q-107 -92 -172 -199t-65 -216q0 -53 40.5 -90t96.5 -37q80 0 223 97t273 249l14 -10q-105 -144 -263 -252.5t-253 -108.5q-66 0 -113 43.5t-47 108.5q0 121 79 244t200 216q103 79 214 126t177 47q83 0 136.5 -61t53.5 -146q0 -125 -83 -300t-216 -345 q-325 -408 -587 -408q-66 0 -120 29.5t-87 78.5t-50.5 107.5t-17.5 120.5zM1081 1487q0 14 10 24.5t23 10.5q43 0 49 -58q2 -15 5.5 -27t6.5 -21.5t10.5 -20.5t11 -16.5t16 -17.5t17.5 -17t22.5 -21t25.5 -23l-6 -8q-67 30 -129 85t-62 110z" />
<glyph unicode="&#xd3;" horiz-adv-x="1097" d="M90 336q0 103 35 208.5t93.5 198t138 179.5t165 157t176.5 127q190 120 344 146l7 -15q-130 -24 -281 -121.5t-272 -244.5q-334 -403 -334 -703h2q0 -114 59.5 -177.5t155.5 -63.5q191 0 459 303q168 192 278.5 388t110.5 333q0 78 -43 131t-121 53q-79 0 -191.5 -53 t-214.5 -140q-107 -92 -172 -199t-65 -216q0 -53 40.5 -90t96.5 -37q80 0 223 97t273 249l14 -10q-105 -144 -263 -252.5t-253 -108.5q-66 0 -113 43.5t-47 108.5q0 121 79 244t200 216q103 79 214 126t177 47q83 0 136.5 -61t53.5 -146q0 -125 -83 -300t-216 -345 q-325 -408 -587 -408q-66 0 -120 29.5t-87 78.5t-50.5 107.5t-17.5 120.5zM1124 1300q8 7 25.5 23t22.5 21t17.5 17t16 17.5t11 16.5t10.5 20.5t6.5 21.5t5.5 27q6 58 49 58q13 0 23 -10.5t10 -24.5q0 -55 -62 -110t-129 -85z" />
<glyph unicode="&#xd4;" horiz-adv-x="1097" d="M90 336q0 103 35 208.5t93.5 198t138 179.5t165 157t176.5 127q190 120 344 146l7 -15q-130 -24 -281 -121.5t-272 -244.5q-334 -403 -334 -703h2q0 -114 59.5 -177.5t155.5 -63.5q191 0 459 303q168 192 278.5 388t110.5 333q0 78 -43 131t-121 53q-79 0 -191.5 -53 t-214.5 -140q-107 -92 -172 -199t-65 -216q0 -53 40.5 -90t96.5 -37q80 0 223 97t273 249l14 -10q-105 -144 -263 -252.5t-253 -108.5q-66 0 -113 43.5t-47 108.5q0 121 79 244t200 216q103 79 214 126t177 47q83 0 136.5 -61t53.5 -146q0 -125 -83 -300t-216 -345 q-325 -408 -587 -408q-66 0 -120 29.5t-87 78.5t-50.5 107.5t-17.5 120.5zM981 1378v8q133 99 209 211h16q40 -141 105 -225h-17q-36 25 -58 55.5t-48 79.5q-126 -106 -207 -129z" />
<glyph unicode="&#xd5;" horiz-adv-x="1097" d="M90 336q0 103 35 208.5t93.5 198t138 179.5t165 157t176.5 127q190 120 344 146l7 -15q-130 -24 -281 -121.5t-272 -244.5q-334 -403 -334 -703h2q0 -114 59.5 -177.5t155.5 -63.5q191 0 459 303q168 192 278.5 388t110.5 333q0 78 -43 131t-121 53q-79 0 -191.5 -53 t-214.5 -140q-107 -92 -172 -199t-65 -216q0 -53 40.5 -90t96.5 -37q80 0 223 97t273 249l14 -10q-105 -144 -263 -252.5t-253 -108.5q-66 0 -113 43.5t-47 108.5q0 121 79 244t200 216q103 79 214 126t177 47q83 0 136.5 -61t53.5 -146q0 -125 -83 -300t-216 -345 q-325 -408 -587 -408q-66 0 -120 29.5t-87 78.5t-50.5 107.5t-17.5 120.5zM995 1380q53 115 135 115q25 0 63.5 -24.5t61.5 -24.5q41 0 93 63h12q-22 -53 -57.5 -88t-77.5 -35q-25 0 -59.5 26t-67.5 26q-46 0 -88 -58h-15z" />
<glyph unicode="&#xd6;" horiz-adv-x="1097" d="M90 336q0 103 35 208.5t93.5 198t138 179.5t165 157t176.5 127q190 120 344 146l7 -15q-130 -24 -281 -121.5t-272 -244.5q-334 -403 -334 -703h2q0 -114 59.5 -177.5t155.5 -63.5q191 0 459 303q168 192 278.5 388t110.5 333q0 78 -43 131t-121 53q-79 0 -191.5 -53 t-214.5 -140q-107 -92 -172 -199t-65 -216q0 -53 40.5 -90t96.5 -37q80 0 223 97t273 249l14 -10q-105 -144 -263 -252.5t-253 -108.5q-66 0 -113 43.5t-47 108.5q0 121 79 244t200 216q103 79 214 126t177 47q83 0 136.5 -61t53.5 -146q0 -125 -83 -300t-216 -345 q-325 -408 -587 -408q-66 0 -120 29.5t-87 78.5t-50.5 107.5t-17.5 120.5zM1061.5 1386.5q-3.5 14.5 5.5 34.5q9 21 25.5 35t33.5 14q14 0 18.5 -13.5t-5.5 -35.5q-24 -49 -60 -49q-14 0 -17.5 14.5zM1231.5 1386.5q-3.5 14.5 5.5 34.5q9 21 25.5 35t33.5 14 q14 0 18.5 -13.5t-5.5 -35.5q-24 -49 -60 -49q-14 0 -17.5 14.5z" />
<glyph unicode="&#xd9;" horiz-adv-x="1134" d="M70 928q27 42 59.5 81.5t80 85t105.5 73.5t115 28q60 0 102 -27q90 41 168 41q69 0 118.5 -51.5t49.5 -120.5q0 -75 -49.5 -185t-121 -220t-142.5 -215t-120.5 -196.5t-49.5 -139.5q0 -33 19 -53.5t47 -20.5q56 0 172.5 134.5t281.5 365.5q183 258 455 670h82l-465 -746 q-56 -91 -91.5 -177.5t-35.5 -129.5q0 -49 15.5 -73.5t56.5 -24.5q20 0 39.5 8t27.5 14t31 25q1 1 4.5 3.5t5.5 2.5q10 0 10 -10q0 -5 -4 -9q-21 -21 -34 -31.5t-35 -20t-47 -9.5q-50 0 -80.5 43t-30.5 107q0 107 82 280q-155 -209 -221 -284q-142 -161 -224 -162 q-106 0 -106 147q0 125 149 350q33 51 107.5 158t113.5 166t74 133.5t35 122.5q0 60 -34 93.5t-89 33.5q-66 0 -147 -33q47 -44 47 -131q0 -110 -66 -245.5t-161 -229.5t-172 -94q-51 0 -85 39.5t-34 93.5q0 104 62 217.5t157 203.5t201 144q-30 18 -70 18 q-48 0 -101.5 -26.5t-102 -69.5t-81.5 -79t-63 -74zM109 588q0 -44 23.5 -76.5t62.5 -32.5q48 0 111.5 53.5t119 133.5t94.5 185.5t39 199.5q0 51 -43 88q-160 -80 -283.5 -243.5t-123.5 -307.5zM1049 1393q0 14 9.5 24t22.5 10q43 0 49 -57q2 -15 5.5 -27t6.5 -21.5 t10.5 -20.5t11 -16.5t16 -17.5t17.5 -17t22.5 -21t25.5 -23l-6 -8q-66 29 -128 84.5t-62 110.5z" />
<glyph unicode="&#xda;" horiz-adv-x="1134" d="M70 928q27 42 59.5 81.5t80 85t105.5 73.5t115 28q60 0 102 -27q90 41 168 41q69 0 118.5 -51.5t49.5 -120.5q0 -75 -49.5 -185t-121 -220t-142.5 -215t-120.5 -196.5t-49.5 -139.5q0 -33 19 -53.5t47 -20.5q56 0 172.5 134.5t281.5 365.5q183 258 455 670h82l-465 -746 q-56 -91 -91.5 -177.5t-35.5 -129.5q0 -49 15.5 -73.5t56.5 -24.5q20 0 39.5 8t27.5 14t31 25q1 1 4.5 3.5t5.5 2.5q10 0 10 -10q0 -5 -4 -9q-21 -21 -34 -31.5t-35 -20t-47 -9.5q-50 0 -80.5 43t-30.5 107q0 107 82 280q-155 -209 -221 -284q-142 -161 -224 -162 q-106 0 -106 147q0 125 149 350q33 51 107.5 158t113.5 166t74 133.5t35 122.5q0 60 -34 93.5t-89 33.5q-66 0 -147 -33q47 -44 47 -131q0 -110 -66 -245.5t-161 -229.5t-172 -94q-51 0 -85 39.5t-34 93.5q0 104 62 217.5t157 203.5t201 144q-30 18 -70 18 q-48 0 -101.5 -26.5t-102 -69.5t-81.5 -79t-63 -74zM109 588q0 -44 23.5 -76.5t62.5 -32.5q48 0 111.5 53.5t119 133.5t94.5 185.5t39 199.5q0 51 -43 88q-160 -80 -283.5 -243.5t-123.5 -307.5zM1159 1206q8 7 25.5 23t22.5 21t17.5 17t16 17.5t11 16.5t10.5 20.5t6.5 21.5 t5.5 27q6 57 49 57q13 0 23 -10t10 -24q0 -55 -62 -110t-129 -85z" />
<glyph unicode="&#xdb;" horiz-adv-x="1134" d="M70 928q27 42 59.5 81.5t80 85t105.5 73.5t115 28q60 0 102 -27q90 41 168 41q69 0 118.5 -51.5t49.5 -120.5q0 -75 -49.5 -185t-121 -220t-142.5 -215t-120.5 -196.5t-49.5 -139.5q0 -33 19 -53.5t47 -20.5q56 0 172.5 134.5t281.5 365.5q183 258 455 670h82l-465 -746 q-56 -91 -91.5 -177.5t-35.5 -129.5q0 -49 15.5 -73.5t56.5 -24.5q20 0 39.5 8t27.5 14t31 25q1 1 4.5 3.5t5.5 2.5q10 0 10 -10q0 -5 -4 -9q-21 -21 -34 -31.5t-35 -20t-47 -9.5q-50 0 -80.5 43t-30.5 107q0 107 82 280q-155 -209 -221 -284q-142 -161 -224 -162 q-106 0 -106 147q0 125 149 350q33 51 107.5 158t113.5 166t74 133.5t35 122.5q0 60 -34 93.5t-89 33.5q-66 0 -147 -33q47 -44 47 -131q0 -110 -66 -245.5t-161 -229.5t-172 -94q-51 0 -85 39.5t-34 93.5q0 104 62 217.5t157 203.5t201 144q-30 18 -70 18 q-48 0 -101.5 -26.5t-102 -69.5t-81.5 -79t-63 -74zM109 588q0 -44 23.5 -76.5t62.5 -32.5q48 0 111.5 53.5t119 133.5t94.5 185.5t39 199.5q0 51 -43 88q-160 -80 -283.5 -243.5t-123.5 -307.5zM977 1202v8q133 99 209 211h16q40 -141 105 -225h-17q-36 25 -58 55.5 t-48 79.5q-126 -106 -207 -129z" />
<glyph unicode="&#xdc;" horiz-adv-x="1134" d="M70 928q27 42 59.5 81.5t80 85t105.5 73.5t115 28q60 0 102 -27q90 41 168 41q69 0 118.5 -51.5t49.5 -120.5q0 -75 -49.5 -185t-121 -220t-142.5 -215t-120.5 -196.5t-49.5 -139.5q0 -33 19 -53.5t47 -20.5q56 0 172.5 134.5t281.5 365.5q183 258 455 670h82l-465 -746 q-56 -91 -91.5 -177.5t-35.5 -129.5q0 -49 15.5 -73.5t56.5 -24.5q20 0 39.5 8t27.5 14t31 25q1 1 4.5 3.5t5.5 2.5q10 0 10 -10q0 -5 -4 -9q-21 -21 -34 -31.5t-35 -20t-47 -9.5q-50 0 -80.5 43t-30.5 107q0 107 82 280q-155 -209 -221 -284q-142 -161 -224 -162 q-106 0 -106 147q0 125 149 350q33 51 107.5 158t113.5 166t74 133.5t35 122.5q0 60 -34 93.5t-89 33.5q-66 0 -147 -33q47 -44 47 -131q0 -110 -66 -245.5t-161 -229.5t-172 -94q-51 0 -85 39.5t-34 93.5q0 104 62 217.5t157 203.5t201 144q-30 18 -70 18 q-48 0 -101.5 -26.5t-102 -69.5t-81.5 -79t-63 -74zM109 588q0 -44 23.5 -76.5t62.5 -32.5q48 0 111.5 53.5t119 133.5t94.5 185.5t39 199.5q0 51 -43 88q-160 -80 -283.5 -243.5t-123.5 -307.5zM1020.5 1206.5q-3.5 14.5 5.5 34.5q9 21 25.5 35t33.5 14q14 0 18.5 -13.5 t-5.5 -35.5q-24 -49 -60 -49q-14 0 -17.5 14.5zM1190.5 1206.5q-3.5 14.5 5.5 34.5q9 21 25.5 35t33.5 14q14 0 18.5 -13.5t-5.5 -35.5q-24 -49 -60 -49q-14 0 -17.5 14.5z" />
<glyph unicode="&#xdd;" horiz-adv-x="1097" d="M-285 -365q0 80 35.5 150.5t91.5 117t123.5 73t134.5 26.5q97 0 158 -50.5t61 -141.5q0 -107 -86 -184.5t-190 -92.5v16q94 12 166 87.5t72 166.5q0 81 -47 125.5t-128 44.5q-84 0 -165 -42t-135 -122t-54 -176q0 -106 69 -180t179 -74q68 0 138 30.5t129 77.5 t121.5 118.5t110.5 139t100.5 153.5t86 147t74 135.5t57.5 104.5q-25 -28 -59.5 -73.5t-60.5 -78t-58 -65.5t-65.5 -50.5t-69.5 -17.5q-59 0 -94 42t-35 122q0 35 8 72.5t30 86.5t36.5 80.5t53.5 95t53 86t63.5 97.5t58.5 88q84 127 130 218.5t46 156.5q0 48 -36 85.5 t-83 37.5q-72 0 -172 -54q60 -63 60 -153q0 -99 -44.5 -217.5t-108 -212.5t-136 -157.5t-125.5 -63.5q-56 0 -89.5 51.5t-33.5 120.5q0 156 131.5 344t300.5 291q-43 32 -98 32q-54 0 -102.5 -17t-88.5 -48.5t-71.5 -63t-66.5 -72.5q-5 -6 -8.5 -10t-6.5 -8l-15 8 q64 98 156.5 167t202.5 69q72 0 125 -41q105 57 194 57q70 0 116 -53t46 -133q0 -75 -48 -186t-116.5 -223t-137.5 -221t-117 -207t-48 -154q0 -34 16.5 -57t47.5 -23q30 0 60 16.5t70 61.5t61.5 73t74.5 101q15 20 22 30q166 229 291 435l264 446h91l-682 -1196 q-39 -69 -93 -146.5t-132.5 -168t-160.5 -161t-179 -118t-185 -47.5q-121 0 -203 79.5t-82 196.5zM129 575q0 -52 22 -90.5t64 -38.5q39 0 101.5 58.5t122 144.5t102.5 198t43 206q0 92 -47 145q-102 -64 -194.5 -165t-153 -225t-60.5 -233zM1147 1235q8 7 25.5 23t22.5 21 t17.5 17t16 17.5t11 16.5t10.5 20.5t6.5 21.5t5.5 27q6 57 49 57q13 0 22.5 -10.5t9.5 -24.5q0 -55 -61.5 -109.5t-128.5 -84.5z" />
<glyph unicode="&#xe0;" horiz-adv-x="444" d="M-55 82q0 55 39.5 123.5t93.5 123t111 91.5t90 37q39 0 63 -35l14 16h68l-201 -344q-22 -37 -22 -57q0 -29 20 -29q17 0 42 18t60 57.5t55 64.5t59 75q12 16 18 23h24q-4 -5 -28 -37.5t-36 -48.5t-37.5 -47.5t-43 -49t-39.5 -38t-40.5 -30t-33.5 -9.5q-27 0 -45 19.5 t-18 47.5q0 15 5.5 34.5t6.5 25.5q-39 -46 -83.5 -81.5t-76.5 -35.5q-28 0 -46.5 26t-18.5 60zM-6 55q0 -35 24 -35q33 0 89 60.5t94 116.5l92 137q26 43 26 63q0 37 -34 37q-38 0 -108.5 -71.5t-126.5 -163.5t-56 -144zM301 686q0 14 10 24.5t23 10.5q43 0 49 -57 q2 -15 5.5 -27t6.5 -21.5t10.5 -20.5t11 -16.5t16 -17.5t17.5 -17t22.5 -21t25.5 -23l-6 -8q-67 30 -129 84.5t-62 109.5z" />
<glyph unicode="&#xe1;" horiz-adv-x="444" d="M-55 82q0 55 39.5 123.5t93.5 123t111 91.5t90 37q39 0 63 -35l14 16h68l-201 -344q-22 -37 -22 -57q0 -29 20 -29q17 0 42 18t60 57.5t55 64.5t59 75q12 16 18 23h24q-4 -5 -28 -37.5t-36 -48.5t-37.5 -47.5t-43 -49t-39.5 -38t-40.5 -30t-33.5 -9.5q-27 0 -45 19.5 t-18 47.5q0 15 5.5 34.5t6.5 25.5q-39 -46 -83.5 -81.5t-76.5 -35.5q-28 0 -46.5 26t-18.5 60zM-6 55q0 -35 24 -35q33 0 89 60.5t94 116.5l92 137q26 43 26 63q0 37 -34 37q-38 0 -108.5 -71.5t-126.5 -163.5t-56 -144zM324 500q6 5 25 22.5t23 21.5l17 17t16 18t11 16.5 t10.5 20t6 21t5.5 27.5q6 57 49 57q13 0 23 -10.5t10 -24.5q0 -55 -61.5 -109.5t-128.5 -84.5z" />
<glyph unicode="&#xe2;" horiz-adv-x="444" d="M-55 82q0 55 39.5 123.5t93.5 123t111 91.5t90 37q39 0 63 -35l14 16h68l-201 -344q-22 -37 -22 -57q0 -29 20 -29q17 0 42 18t60 57.5t55 64.5t59 75q12 16 18 23h24q-4 -5 -28 -37.5t-36 -48.5t-37.5 -47.5t-43 -49t-39.5 -38t-40.5 -30t-33.5 -9.5q-27 0 -45 19.5 t-18 47.5q0 15 5.5 34.5t6.5 25.5q-39 -46 -83.5 -81.5t-76.5 -35.5q-28 0 -46.5 26t-18.5 60zM-6 55q0 -35 24 -35q33 0 89 60.5t94 116.5l92 137q26 43 26 63q0 37 -34 37q-38 0 -108.5 -71.5t-126.5 -163.5t-56 -144zM197 492v8q133 99 209 211h16q41 -144 104 -226h-16 q-25 17 -46 41.5t-32.5 43.5t-28.5 51q-126 -106 -206 -129z" />
<glyph unicode="&#xe3;" horiz-adv-x="444" d="M-55 82q0 55 39.5 123.5t93.5 123t111 91.5t90 37q39 0 63 -35l14 16h68l-201 -344q-22 -37 -22 -57q0 -29 20 -29q17 0 42 18t60 57.5t55 64.5t59 75q12 16 18 23h24q-4 -5 -28 -37.5t-36 -48.5t-37.5 -47.5t-43 -49t-39.5 -38t-40.5 -30t-33.5 -9.5q-27 0 -45 19.5 t-18 47.5q0 15 5.5 34.5t6.5 25.5q-39 -46 -83.5 -81.5t-76.5 -35.5q-28 0 -46.5 26t-18.5 60zM-6 55q0 -35 24 -35q33 0 89 60.5t94 116.5l92 137q26 43 26 63q0 37 -34 37q-38 0 -108.5 -71.5t-126.5 -163.5t-56 -144zM229 485q19 115 105 115q25 0 69.5 -24.5t67.5 -24.5 q41 0 76 63h12q-6 -53 -33 -87.5t-69 -34.5q-25 0 -67 25.5t-75 25.5q-43 0 -71 -58h-15z" />
<glyph unicode="&#xe4;" horiz-adv-x="444" d="M-55 82q0 55 39.5 123.5t93.5 123t111 91.5t90 37q39 0 63 -35l14 16h68l-201 -344q-22 -37 -22 -57q0 -29 20 -29q17 0 42 18t60 57.5t55 64.5t59 75q12 16 18 23h24q-4 -5 -28 -37.5t-36 -48.5t-37.5 -47.5t-43 -49t-39.5 -38t-40.5 -30t-33.5 -9.5q-27 0 -45 19.5 t-18 47.5q0 15 5.5 34.5t6.5 25.5q-39 -46 -83.5 -81.5t-76.5 -35.5q-28 0 -46.5 26t-18.5 60zM-6 55q0 -35 24 -35q33 0 89 60.5t94 116.5l92 137q26 43 26 63q0 37 -34 37q-38 0 -108.5 -71.5t-126.5 -163.5t-56 -144zM246.5 506.5q-3.5 14.5 5.5 34.5q9 21 25.5 35 t33.5 14q14 0 18.5 -13.5t-5.5 -35.5q-24 -49 -60 -49q-14 0 -17.5 14.5zM416.5 506.5q-3.5 14.5 5.5 34.5q9 21 25.5 35t33.5 14q14 0 18.5 -13.5t-5.5 -35.5q-24 -49 -60 -49q-14 0 -17.5 14.5z" />
<glyph unicode="&#xe6;" horiz-adv-x="561" d="M-55 82q0 55 39.5 123.5t93.5 123t111 91.5t90 37q39 0 63 -35l14 16h68l-4 -8q52 27 80 27q26 0 41.5 -15t15.5 -41q0 -67 -86.5 -121.5t-181.5 -72.5q-43 -81 -43 -150q0 -25 19.5 -40t47.5 -15q94 0 258 244h25q-8 -12 -30 -44t-32.5 -47.5t-32 -43.5t-36 -43 t-36 -35.5t-39.5 -30.5t-40.5 -17.5t-44.5 -7.5q-50 0 -82.5 32t-32.5 81q0 22 7 53q-124 -147 -183 -147q-28 0 -48.5 26.5t-20.5 59.5zM-6 55q0 -35 24 -35q33 0 89 60.5t94 116.5l92 137q26 43 26 63q0 37 -34 37q-38 0 -108.5 -71.5t-126.5 -163.5t-56 -144zM307 238 q78 18 149.5 70t71.5 98q0 12 -7 20t-19 8q-31 0 -90.5 -59t-104.5 -137z" />
<glyph unicode="&#xe7;" horiz-adv-x="333" d="M-150 -326q-5 15 7 17q9 2 12 -10q12 -35 51 -35q64 0 122 58t58 118q0 41 -41 41q-40 0 -88 -29q-9 -7 -15.5 -1t1.5 15l94 132q-39 8 -63.5 38t-24.5 72q0 64 34.5 132.5t83.5 119t101.5 83t89.5 32.5q27 0 46.5 -17t19.5 -43q0 -31 -20.5 -56.5t-45.5 -25.5 q-10 0 -17 7t-7 18q0 15 12 27t27 12l14 -2q10 13 10 29q0 11 -12 19.5t-25 8.5q-32 0 -93 -60.5t-112 -152.5t-51 -164q0 -25 20 -40t48 -15q94 0 258 244h25q-8 -12 -30 -44t-32.5 -47.5t-32 -43.5t-36 -43t-36 -35.5t-39.5 -30.5t-40.5 -17.5t-44.5 -7.5h-8l-80 -114 q48 18 69 18q40 0 61 -21t21 -55q0 -66 -69.5 -122t-151.5 -56q-29 0 -47 14t-23 33z" />
<glyph unicode="&#xe8;" horiz-adv-x="333" d="M-37 90q0 64 34.5 132.5t83.5 119t101.5 83t89.5 32.5q26 0 42 -15t16 -41q0 -67 -86.5 -121.5t-182.5 -72.5q-43 -81 -43 -150q0 -25 20 -40t48 -15q94 0 258 244h25q-8 -12 -30 -44t-32.5 -47.5t-32 -43.5t-36 -43t-36 -35.5t-39.5 -30.5t-40.5 -17.5t-44.5 -7.5 q-50 0 -82.5 32t-32.5 81zM80 238q78 18 149.5 70t71.5 98q0 12 -7.5 20t-19.5 8q-31 0 -90 -59t-104 -137zM221 686q0 14 10 24.5t23 10.5q43 0 49 -57q2 -15 5.5 -27t6.5 -21.5t10.5 -20.5t11 -16.5t16 -17.5t17.5 -17t22.5 -21t25.5 -23l-6 -8q-67 30 -129 84.5 t-62 109.5z" />
<glyph unicode="&#xe9;" horiz-adv-x="333" d="M-37 90q0 64 34.5 132.5t83.5 119t101.5 83t89.5 32.5q26 0 42 -15t16 -41q0 -67 -86.5 -121.5t-182.5 -72.5q-43 -81 -43 -150q0 -25 20 -40t48 -15q94 0 258 244h25q-8 -12 -30 -44t-32.5 -47.5t-32 -43.5t-36 -43t-36 -35.5t-39.5 -30.5t-40.5 -17.5t-44.5 -7.5 q-50 0 -82.5 32t-32.5 81zM80 238q78 18 149.5 70t71.5 98q0 12 -7.5 20t-19.5 8q-31 0 -90 -59t-104 -137zM227 500q8 7 25.5 23t22.5 21t17.5 17t16 17.5t11 16.5t10.5 20.5t6.5 21.5t5.5 27q6 57 49 57q13 0 23 -10.5t10 -24.5q0 -55 -62 -109.5t-129 -84.5z" />
<glyph unicode="&#xea;" horiz-adv-x="333" d="M-37 90q0 64 34.5 132.5t83.5 119t101.5 83t89.5 32.5q26 0 42 -15t16 -41q0 -67 -86.5 -121.5t-182.5 -72.5q-43 -81 -43 -150q0 -25 20 -40t48 -15q94 0 258 244h25q-8 -12 -30 -44t-32.5 -47.5t-32 -43.5t-36 -43t-36 -35.5t-39.5 -30.5t-40.5 -17.5t-44.5 -7.5 q-50 0 -82.5 32t-32.5 81zM80 238q78 18 149.5 70t71.5 98q0 12 -7.5 20t-19.5 8q-31 0 -90 -59t-104 -137zM127 492v8q133 99 209 211h16q41 -142 105 -226h-17q-36 25 -58 56t-48 80q-126 -106 -207 -129z" />
<glyph unicode="&#xeb;" horiz-adv-x="333" d="M-37 90q0 64 34.5 132.5t83.5 119t101.5 83t89.5 32.5q26 0 42 -15t16 -41q0 -67 -86.5 -121.5t-182.5 -72.5q-43 -81 -43 -150q0 -25 20 -40t48 -15q94 0 258 244h25q-8 -12 -30 -44t-32.5 -47.5t-32 -43.5t-36 -43t-36 -35.5t-39.5 -30.5t-40.5 -17.5t-44.5 -7.5 q-50 0 -82.5 32t-32.5 81zM80 238q78 18 149.5 70t71.5 98q0 12 -7.5 20t-19.5 8q-31 0 -90 -59t-104 -137zM191.5 506.5q-3.5 14.5 5.5 34.5q9 21 25.5 35t33.5 14q14 0 18 -13.5t-6 -35.5q-24 -49 -59 -49q-14 0 -17.5 14.5zM361.5 506.5q-3.5 14.5 5.5 34.5q9 21 25.5 35 t33.5 14q14 0 18 -13.5t-6 -35.5q-24 -49 -59 -49q-14 0 -17.5 14.5z" />
<glyph unicode="&#xec;" horiz-adv-x="200" d="M-86 49q0 34 35 94l172 295l72 -2l-209 -352q-23 -38 -23 -57q0 -11 3 -15t13 -4q23 0 65.5 39t75.5 79.5t80 100.5l4.5 6t4 5t4.5 6h25q-1 -2 -27 -37t-37 -49t-37.5 -47t-43.5 -49.5t-39.5 -38t-41 -30.5t-33.5 -9q-63 0 -63 65zM111 686q0 14 9.5 24.5t22.5 10.5 q44 0 50 -57q2 -15 5.5 -27.5t6 -21t10.5 -20t11 -16.5t16 -18l17 -17t23 -21.5t25 -22.5l-6 -8q-67 30 -128.5 84.5t-61.5 109.5z" />
<glyph unicode="&#xed;" horiz-adv-x="200" d="M-86 49q0 34 35 94l172 295l72 -2l-209 -352q-23 -38 -23 -57q0 -11 3 -15t13 -4q23 0 65.5 39t75.5 79.5t80 100.5l4.5 6t4 5t4.5 6h25q-1 -2 -27 -37t-37 -49t-37.5 -47t-43.5 -49.5t-39.5 -38t-41 -30.5t-33.5 -9q-63 0 -63 65zM150 500q6 5 25 22.5t23 21.5l17 17 t16 18t11 16.5t10.5 20t6 21t5.5 27.5q6 57 49 57q13 0 23 -10.5t10 -24.5q0 -55 -61.5 -109.5t-128.5 -84.5z" />
<glyph unicode="&#xee;" horiz-adv-x="200" d="M-86 49q0 34 35 94l172 295l72 -2l-209 -352q-23 -38 -23 -57q0 -11 3 -15t13 -4q23 0 65.5 39t75.5 79.5t80 100.5l4.5 6t4 5t4.5 6h25q-1 -2 -27 -37t-37 -49t-37.5 -47t-43.5 -49.5t-39.5 -38t-41 -30.5t-33.5 -9q-63 0 -63 65zM37 492v8q133 99 209 211h16 q41 -142 105 -226h-17q-36 25 -58 56t-48 80q-126 -106 -207 -129z" />
<glyph unicode="&#xef;" horiz-adv-x="200" d="M-86 49q0 34 35 94l172 295l72 -2l-209 -352q-23 -38 -23 -57q0 -11 3 -15t13 -4q23 0 65.5 39t75.5 79.5t80 100.5l4.5 6t4 5t4.5 6h25q-1 -2 -27 -37t-37 -49t-37.5 -47t-43.5 -49.5t-39.5 -38t-41 -30.5t-33.5 -9q-63 0 -63 65zM93 506.5q-4 14.5 5 34.5q9 21 26 35 t34 14q14 0 18 -13.5t-6 -35.5q-24 -49 -59 -49q-14 0 -18 14.5zM263 506.5q-4 14.5 5 34.5q9 21 26 35t34 14q14 0 18 -13.5t-6 -35.5q-24 -49 -59 -49q-14 0 -18 14.5z" />
<glyph unicode="&#xf1;" horiz-adv-x="579" d="M10 246q15 17 42.5 53t45.5 57.5t42.5 46t46 36.5t42.5 12q24 0 43 -15t19 -37q0 -36 -25 -84v-2q108 117 172 117q27 0 44.5 -19.5t17.5 -45.5q0 -34 -41.5 -108t-83 -143t-41.5 -91q0 -19 14 -19q19 0 48 22t68 67t63 74t63 79h24q-6 -8 -32 -42.5t-39 -51t-38 -48 t-42 -48.5t-38 -36.5t-39 -28.5t-32 -9q-29 0 -47 18t-18 39q0 45 41.5 121.5t83 143t41.5 87.5t-19 21q-43 0 -111.5 -70.5t-107.5 -136.5l-121 -205h-69l137 246q74 137 74 162q0 6 -4.5 12t-10.5 6q-22 0 -58.5 -32.5t-63 -64t-66.5 -83.5h-25zM266 485q53 115 135 115 q25 0 63.5 -24.5t61.5 -24.5q40 0 92 63h13q-22 -53 -57.5 -87.5t-77.5 -34.5q-25 0 -59.5 25.5t-67.5 25.5q-46 0 -88 -58h-15z" />
<glyph unicode="&#xf2;" d="M-47 80q0 65 40 137t93 123t102 85t70 34q14 0 14 -8t-10 -15q-64 -34 -159 -160t-95 -223q0 -47 35 -47q34 0 81 49.5t93 124.5q-45 27 -45 88q0 44 24.5 88.5t57.5 69.5q22 16 41 16q20 0 32.5 -16t12.5 -37q0 -58 -82 -201q10 -2 33 -2q52 0 100 60h25 q-22 -25 -35.5 -38.5t-41.5 -28.5t-56 -15q-13 0 -37 4q-119 -191 -207 -191q-37 0 -61.5 31.5t-24.5 71.5zM203 266q0 -49 26 -65q82 140 82 192q0 29 -18 29q-9 0 -30 -23.5t-40.5 -62t-19.5 -70.5zM205 686q0 14 10 24.5t23 10.5q43 0 49 -57q2 -15 5.5 -27.5t6 -21 t10.5 -20t11 -16.5t16 -18l17 -17t23 -21.5t25 -22.5l-6 -8q-67 30 -128.5 84.5t-61.5 109.5z" />
<glyph unicode="&#xf3;" d="M-47 80q0 65 40 137t93 123t102 85t70 34q14 0 14 -8t-10 -15q-64 -34 -159 -160t-95 -223q0 -47 35 -47q34 0 81 49.5t93 124.5q-45 27 -45 88q0 44 24.5 88.5t57.5 69.5q22 16 41 16q20 0 32.5 -16t12.5 -37q0 -58 -82 -201q10 -2 33 -2q52 0 100 60h25 q-22 -25 -35.5 -38.5t-41.5 -28.5t-56 -15q-13 0 -37 4q-119 -191 -207 -191q-37 0 -61.5 31.5t-24.5 71.5zM203 266q0 -49 26 -65q82 140 82 192q0 29 -18 29q-9 0 -30 -23.5t-40.5 -62t-19.5 -70.5zM260 500q8 7 25.5 23t22.5 21t17.5 17t16 17.5t11 16.5t10.5 20.5 t6.5 21.5t5.5 27q6 57 49 57q13 0 23 -10.5t10 -24.5q0 -55 -62 -109.5t-129 -84.5z" />
<glyph unicode="&#xf4;" d="M-47 80q0 65 40 137t93 123t102 85t70 34q14 0 14 -8t-10 -15q-64 -34 -159 -160t-95 -223q0 -47 35 -47q34 0 81 49.5t93 124.5q-45 27 -45 88q0 44 24.5 88.5t57.5 69.5q22 16 41 16q20 0 32.5 -16t12.5 -37q0 -58 -82 -201q10 -2 33 -2q52 0 100 60h25 q-22 -25 -35.5 -38.5t-41.5 -28.5t-56 -15q-13 0 -37 4q-119 -191 -207 -191q-37 0 -61.5 31.5t-24.5 71.5zM152 492v8q131 98 208 211h17q41 -144 104 -226h-16q-25 17 -46 41.5t-32.5 43.5t-28.5 51q-126 -106 -206 -129zM203 266q0 -49 26 -65q82 140 82 192q0 29 -18 29 q-9 0 -30 -23.5t-40.5 -62t-19.5 -70.5z" />
<glyph unicode="&#xf5;" d="M-47 80q0 65 40 137t93 123t102 85t70 34q14 0 14 -8t-10 -15q-64 -34 -159 -160t-95 -223q0 -47 35 -47q34 0 81 49.5t93 124.5q-45 27 -45 88q0 44 24.5 88.5t57.5 69.5q22 16 41 16q20 0 32.5 -16t12.5 -37q0 -58 -82 -201q10 -2 33 -2q52 0 100 60h25 q-22 -25 -35.5 -38.5t-41.5 -28.5t-56 -15q-13 0 -37 4q-119 -191 -207 -191q-37 0 -61.5 31.5t-24.5 71.5zM203 266q0 -49 26 -65q82 140 82 192q0 29 -18 29q-9 0 -30 -23.5t-40.5 -62t-19.5 -70.5zM205 485q53 115 135 115q25 0 63.5 -24.5t61.5 -24.5q40 0 92 63h12 q-22 -53 -57.5 -87.5t-77.5 -34.5q-25 0 -59.5 25.5t-67.5 25.5q-46 0 -88 -58h-14z" />
<glyph unicode="&#xf6;" d="M-47 80q0 65 40 137t93 123t102 85t70 34q14 0 14 -8t-10 -15q-64 -34 -159 -160t-95 -223q0 -47 35 -47q34 0 81 49.5t93 124.5q-45 27 -45 88q0 44 24.5 88.5t57.5 69.5q22 16 41 16q20 0 32.5 -16t12.5 -37q0 -58 -82 -201q10 -2 33 -2q52 0 100 60h25 q-22 -25 -35.5 -38.5t-41.5 -28.5t-56 -15q-13 0 -37 4q-119 -191 -207 -191q-37 0 -61.5 31.5t-24.5 71.5zM189.5 506.5q-3.5 14.5 5.5 34.5q9 21 25.5 35t33.5 14q14 0 18 -13.5t-6 -35.5q-24 -49 -59 -49q-14 0 -17.5 14.5zM203 266q0 -49 26 -65q82 140 82 192 q0 29 -18 29q-9 0 -30 -23.5t-40.5 -62t-19.5 -70.5zM359.5 506.5q-3.5 14.5 5.5 34.5q9 21 25.5 35t33.5 14q14 0 18 -13.5t-6 -35.5q-24 -49 -59 -49q-14 0 -17.5 14.5z" />
<glyph unicode="&#xf9;" horiz-adv-x="403" d="M-84 51q0 32 35 92l172 295h72l-209 -352q-23 -38 -23 -57q0 -11 3.5 -15t13.5 -4q23 0 64 38t75 79t79 99l9 12l117 200h71l-209 -352q-22 -37 -22 -57q0 -11 3 -15t13 -4q23 0 65.5 39t75.5 79.5t80 100.5q9 12 13 17h24q-4 -5 -28 -37.5t-36 -48.5t-37.5 -47.5 t-43 -49t-39.5 -38t-40.5 -30t-33.5 -9.5q-63 0 -63 65q0 21 20 62q-106 -127 -157 -127q-64 0 -64 65zM227 686q0 14 10 24.5t23 10.5q43 0 49 -57q2 -15 5.5 -27t6.5 -21.5t10.5 -20.5t11 -16.5t16 -17.5t17.5 -17t22.5 -21t25.5 -23l-6 -8q-67 30 -129 84.5t-62 109.5z " />
<glyph unicode="&#xfa;" horiz-adv-x="403" d="M-84 51q0 32 35 92l172 295h72l-209 -352q-23 -38 -23 -57q0 -11 3.5 -15t13.5 -4q23 0 64 38t75 79t79 99l9 12l117 200h71l-209 -352q-22 -37 -22 -57q0 -11 3 -15t13 -4q23 0 65.5 39t75.5 79.5t80 100.5q9 12 13 17h24q-4 -5 -28 -37.5t-36 -48.5t-37.5 -47.5 t-43 -49t-39.5 -38t-40.5 -30t-33.5 -9.5q-63 0 -63 65q0 21 20 62q-106 -127 -157 -127q-64 0 -64 65zM260 500q8 7 25.5 23t22.5 21t17.5 17t16 17.5t11 16.5t10.5 20.5t6.5 21.5t5.5 27q6 57 49 57q13 0 23 -10.5t10 -24.5q0 -55 -62 -109.5t-129 -84.5z" />
<glyph unicode="&#xfb;" horiz-adv-x="403" d="M-84 51q0 32 35 92l172 295h72l-209 -352q-23 -38 -23 -57q0 -11 3.5 -15t13.5 -4q23 0 64 38t75 79t79 99l9 12l117 200h71l-209 -352q-22 -37 -22 -57q0 -11 3 -15t13 -4q23 0 65.5 39t75.5 79.5t80 100.5q9 12 13 17h24q-4 -5 -28 -37.5t-36 -48.5t-37.5 -47.5 t-43 -49t-39.5 -38t-40.5 -30t-33.5 -9.5q-63 0 -63 65q0 21 20 62q-106 -127 -157 -127q-64 0 -64 65zM156 492v8q133 99 209 211h16q41 -144 104 -226h-16q-25 17 -46 41.5t-32.5 43.5t-28.5 51q-126 -106 -206 -129z" />
<glyph unicode="&#xfc;" horiz-adv-x="403" d="M-84 51q0 32 35 92l172 295h72l-209 -352q-23 -38 -23 -57q0 -11 3.5 -15t13.5 -4q23 0 64 38t75 79t79 99l9 12l117 200h71l-209 -352q-22 -37 -22 -57q0 -11 3 -15t13 -4q23 0 65.5 39t75.5 79.5t80 100.5q9 12 13 17h24q-4 -5 -28 -37.5t-36 -48.5t-37.5 -47.5 t-43 -49t-39.5 -38t-40.5 -30t-33.5 -9.5q-63 0 -63 65q0 21 20 62q-106 -127 -157 -127q-64 0 -64 65zM181 506.5q-4 14.5 5 34.5q9 21 26 35t34 14q14 0 18 -13.5t-6 -35.5q-24 -49 -59 -49q-14 0 -18 14.5zM351 506.5q-4 14.5 5 34.5q9 21 26 35t34 14q14 0 18 -13.5 t-6 -35.5q-24 -49 -59 -49q-14 0 -18 14.5z" />
<glyph unicode="&#xfd;" d="M-338 -565q0 50 30 108t71 105t91.5 92.5t83.5 70.5t54 39q0 4 33 63t70 124t42 76q-106 -127 -157 -127q-64 0 -64 65q0 32 35 92l172 295h72l-209 -352q-23 -38 -23 -57q0 -11 3.5 -15t13.5 -4q23 0 64 38t75 79t79 99l9 12l117 200h65l-285 -516q48 33 105.5 95.5 t89.5 104.5t92 124h25q-48 -67 -73.5 -102t-70.5 -90t-91.5 -98.5t-100.5 -82.5q-38 -75 -75 -143t-93.5 -159.5t-109 -146.5t-89.5 -55q-23 0 -37 19.5t-14 46.5zM-309 -578q0 -11 6 -19.5t16 -8.5q19 0 57.5 62t98.5 174t94 167q-22 -16 -52.5 -42t-70 -67t-72 -83.5 t-55 -91.5t-22.5 -91zM244 500q6 5 25 22.5t23 21.5l17 17t16 18t11 16.5t10.5 20t6 21t5.5 27.5q6 57 50 57q13 0 22.5 -10.5t9.5 -24.5q0 -55 -61.5 -109.5t-128.5 -84.5z" />
<glyph unicode="&#xff;" d="M-338 -565q0 50 30 108t71 105t91.5 92.5t83.5 70.5t54 39q0 4 33 63t70 124t42 76q-106 -127 -157 -127q-64 0 -64 65q0 32 35 92l172 295h72l-209 -352q-23 -38 -23 -57q0 -11 3.5 -15t13.5 -4q23 0 64 38t75 79t79 99l9 12l117 200h65l-285 -516q48 33 105.5 95.5 t89.5 104.5t92 124h25q-48 -67 -73.5 -102t-70.5 -90t-91.5 -98.5t-100.5 -82.5q-38 -75 -75 -143t-93.5 -159.5t-109 -146.5t-89.5 -55q-23 0 -37 19.5t-14 46.5zM-309 -578q0 -11 6 -19.5t16 -8.5q19 0 57.5 62t98.5 174t94 167q-22 -16 -52.5 -42t-70 -67t-72 -83.5 t-55 -91.5t-22.5 -91zM181 506.5q-4 14.5 5 34.5q9 21 26 35t34 14q14 0 18 -13.5t-6 -35.5q-24 -49 -59 -49q-14 0 -18 14.5zM351 506.5q-4 14.5 5 34.5q9 21 26 35t34 14q14 0 18 -13.5t-6 -35.5q-24 -49 -59 -49q-14 0 -18 14.5z" />
<glyph unicode="&#x152;" horiz-adv-x="1849" d="M90 336q0 103 35 208.5t93.5 198t138 179.5t165 157t176.5 127q190 120 344 146l7 -15q-130 -24 -281 -121.5t-272 -244.5q-334 -403 -334 -703h2q0 -114 59.5 -177.5t155.5 -63.5q191 0 459 303q38 44 75 90q38 142 177 252q137 232 137 379q0 78 -43 131t-121 53 q-79 0 -191.5 -53t-214.5 -140q-107 -92 -172 -199t-65 -216q0 -53 40.5 -90t96.5 -37q80 0 223 97t273 249l14 -10q-105 -144 -263 -252.5t-253 -108.5q-66 0 -113 43.5t-47 108.5q0 121 79 244t200 216q103 79 214 126t177 47q83 0 136.5 -61t53.5 -146q0 -143 -104 -340 q37 25 119 65q110 52 225 80q-21 32 -21 66q0 69 56.5 140t148 117t185.5 46q64 0 110.5 -44t46.5 -106t-36.5 -124t-103.5 -115.5t-175 -87t-238 -33.5q-102 0 -200 28q-279 -158 -279 -450q0 -105 90 -184.5t207 -79.5q95 0 182 48.5t142 135t55 186.5q0 89 -59 152 t-146 63q-63 0 -131.5 -31t-119 -92.5t-50.5 -134.5q0 -45 35 -75.5t82 -30.5q30 0 60.5 14.5t49 32.5t33 32.5t17.5 14.5q8 0 8 -8q0 -27 -55 -69t-109 -42q-61 0 -105.5 37t-44.5 94q0 114 95.5 199.5t220.5 85.5q102 0 175 -71.5t73 -172.5q0 -160 -126 -279.5 t-296 -119.5q-147 0 -258 87.5t-111 223.5v29q-129 -157 -265 -248.5t-269 -91.5q-66 0 -120 29.5t-87 78.5t-50.5 107.5t-17.5 120.5zM1307 768q79 -18 166 -18q132 0 251 42t195 120t76 173q0 46 -36.5 83.5t-86.5 37.5q-60 0 -138 -42t-137 -112t-59 -137q0 -23 10 -43 q72 17 88 17q76 0 76 -29q0 -23 -33 -36t-71 -13q-64 0 -101 29q-101 -24 -200 -72zM1569 854q21 -12 63 -12q43 0 43 14q0 8 -33 8q-19 0 -73 -10z" />
<glyph unicode="&#x153;" horiz-adv-x="579" d="M-47 80q0 65 38.5 136.5t91 123t105 85.5t82.5 34q31 0 50.5 -23t19.5 -47q0 -19 -8 -43q47 49 99 80t87 31q26 0 41.5 -15t15.5 -41q0 -67 -86.5 -121.5t-181.5 -72.5q-43 -81 -43 -150q0 -25 20 -40t48 -15q94 0 258 244h24q-7 -11 -34 -50t-38.5 -54.5t-36.5 -48 t-42.5 -48t-41.5 -34.5t-48 -26.5t-49 -7.5q-50 0 -82.5 32t-32.5 81q0 4 1 12.5t1 12.5q-100 -138 -172 -138q-37 0 -61.5 31.5t-24.5 71.5zM8 53q0 -47 35 -47q67 0 186 195q82 140 82 192q0 15 -11 30t-34 15q-22 0 -83.5 -64.5t-118 -159.5t-56.5 -161zM326 238 q78 18 149.5 70t71.5 98q0 12 -7.5 20t-19.5 8q-31 0 -90 -59t-104 -137z" />
<glyph unicode="&#x2000;" horiz-adv-x="893" />
<glyph unicode="&#x2001;" horiz-adv-x="1786" />
<glyph unicode="&#x2002;" horiz-adv-x="893" />
<glyph unicode="&#x2003;" horiz-adv-x="1786" />
<glyph unicode="&#x2004;" horiz-adv-x="595" />
<glyph unicode="&#x2005;" horiz-adv-x="446" />
<glyph unicode="&#x2006;" horiz-adv-x="297" />
<glyph unicode="&#x2007;" horiz-adv-x="297" />
<glyph unicode="&#x2008;" horiz-adv-x="223" />
<glyph unicode="&#x2009;" horiz-adv-x="357" />
<glyph unicode="&#x200a;" horiz-adv-x="99" />
<glyph unicode="&#x2010;" horiz-adv-x="579" d="M96 231h396l22 -41h-397z" />
<glyph unicode="&#x2011;" horiz-adv-x="579" d="M96 231h396l22 -41h-397z" />
<glyph unicode="&#x2012;" horiz-adv-x="579" d="M96 231h396l22 -41h-397z" />
<glyph unicode="&#x2013;" horiz-adv-x="1185" d="M96 231h970l54 -41h-973z" />
<glyph unicode="&#x2014;" horiz-adv-x="2209" d="M96 231h1940l108 -41h-1945z" />
<glyph unicode="&#x2018;" horiz-adv-x="274" d="M326 961q0 55 40.5 117t98.5 108q9 6 12.5 -2t-2.5 -13q-37 -28 -76 -77t-51 -95q6 11 17.5 19t21.5 8q29 0 29 -33q0 -24 -19.5 -47.5t-42.5 -23.5q-28 0 -28 39z" />
<glyph unicode="&#x2019;" horiz-adv-x="274" d="M327.5 927.5q-3.5 7.5 2.5 12.5q37 28 76 77t51 95q-6 -11 -17.5 -19t-21.5 -8q-29 0 -29 33q0 24 19.5 48t42.5 24q28 0 28 -39q0 -55 -40.5 -117t-98.5 -108q-9 -6 -12.5 1.5z" />
<glyph unicode="&#x201c;" horiz-adv-x="274" d="M326 961q0 55 40.5 117t98.5 108q9 6 12.5 -2t-2.5 -13q-37 -28 -76 -77t-51 -95q6 11 17.5 19t21.5 8q29 0 29 -33q0 -24 -19.5 -47.5t-42.5 -23.5q-28 0 -28 39zM444 961q0 55 41 117t99 108q9 6 12.5 -2t-2.5 -13q-37 -28 -76 -77t-51 -95q6 11 17.5 19t21.5 8 q29 0 29 -33q0 -24 -19.5 -47.5t-42.5 -23.5q-29 0 -29 39z" />
<glyph unicode="&#x201d;" horiz-adv-x="274" d="M327.5 927.5q-3.5 7.5 2.5 12.5q37 28 76 77t51 95q-6 -11 -17.5 -19t-21.5 -8q-29 0 -29 33q0 24 19.5 48t42.5 24q28 0 28 -39q0 -55 -40.5 -117t-98.5 -108q-9 -6 -12.5 1.5zM446.5 927.5q-3.5 7.5 2.5 12.5q37 28 75.5 77t50.5 95q-15 -27 -38 -27q-29 0 -29 33 q0 24 19.5 48t41.5 24q29 0 29 -39q0 -55 -40.5 -117t-98.5 -108q-9 -6 -12.5 1.5z" />
<glyph unicode="&#x202f;" horiz-adv-x="357" />
<glyph unicode="&#x205f;" horiz-adv-x="446" />
<glyph unicode="&#x25fc;" horiz-adv-x="450" d="M0 0v451h451v-451h-451z" />
</font>
</defs>
</svg>
